<svg width="563" height="285" viewBox="0 0 563 285" fill="none" xmlns="http://www.w3.org/2000/svg">
<path opacity="0.1" d="M0 285H543.8C543.8 285 591.473 234.335 535.36 182.254C514.537 162.94 512.954 139.059 519.191 116.656C536.052 56.0994 468.573 2.508 395.361 18.2356C393.967 18.5377 392.558 18.8438 391.139 19.1619C280.786 43.8704 190.436 19.0386 155.663 6.74602C141.808 1.82632 126.776 -0.454381 111.694 0.0749188C72.6697 1.50614 13.5296 13.8465 68.4616 81.8217C145.906 177.65 0 285 0 285Z" fill="#FF5745"/>
<path d="M92.2021 277.85C96.4378 277.85 99.8714 273.361 99.8714 267.823C99.8714 262.286 96.4378 257.797 92.2021 257.797C87.9665 257.797 84.5328 262.286 84.5328 267.823C84.5328 273.361 87.9665 277.85 92.2021 277.85Z" fill="#3F3D56"/>
<path d="M92.2021 265.593C96.4378 265.593 99.8714 261.104 99.8714 255.567C99.8714 250.029 96.4378 245.54 92.2021 245.54C87.9665 245.54 84.5328 250.029 84.5328 255.567C84.5328 261.104 87.9665 265.593 92.2021 265.593Z" fill="#3F3D56"/>
<path d="M92.2021 253.337C96.4378 253.337 99.8714 248.847 99.8714 243.31C99.8714 237.772 96.4378 233.283 92.2021 233.283C87.9665 233.283 84.5328 237.772 84.5328 243.31C84.5328 248.847 87.9665 253.337 92.2021 253.337Z" fill="#3F3D56"/>
<path d="M92.2021 241.08C96.4378 241.08 99.8714 236.591 99.8714 231.053C99.8714 225.515 96.4378 221.026 92.2021 221.026C87.9665 221.026 84.5328 225.515 84.5328 231.053C84.5328 236.591 87.9665 241.08 92.2021 241.08Z" fill="#3F3D56"/>
<path d="M92.2021 228.823C96.4378 228.823 99.8714 224.334 99.8714 218.796C99.8714 213.259 96.4378 208.77 92.2021 208.77C87.9665 208.77 84.5328 213.259 84.5328 218.796C84.5328 224.334 87.9665 228.823 92.2021 228.823Z" fill="#3F3D56"/>
<path d="M92.2021 216.566C96.4378 216.566 99.8714 212.077 99.8714 206.539C99.8714 201.002 96.4378 196.513 92.2021 196.513C87.9665 196.513 84.5328 201.002 84.5328 206.539C84.5328 212.077 87.9665 216.566 92.2021 216.566Z" fill="#3F3D56"/>
<path d="M92.2021 204.309C96.4378 204.309 99.8714 199.82 99.8714 194.283C99.8714 188.745 96.4378 184.256 92.2021 184.256C87.9665 184.256 84.5328 188.745 84.5328 194.283C84.5328 199.82 87.9665 204.309 92.2021 204.309Z" fill="#3F3D56"/>
<path d="M155.942 276.458C158.296 276.458 160.203 273.964 160.203 270.888C160.203 267.812 158.296 265.318 155.942 265.318C153.589 265.318 151.682 267.812 151.682 270.888C151.682 273.964 153.589 276.458 155.942 276.458Z" fill="#3F3D56"/>
<path d="M155.942 269.648C158.296 269.648 160.203 267.154 160.203 264.078C160.203 261.002 158.296 258.508 155.942 258.508C153.589 258.508 151.682 261.002 151.682 264.078C151.682 267.154 153.589 269.648 155.942 269.648Z" fill="#3F3D56"/>
<path d="M155.942 262.839C158.296 262.839 160.203 260.345 160.203 257.269C160.203 254.193 158.296 251.699 155.942 251.699C153.589 251.699 151.682 254.193 151.682 257.269C151.682 260.345 153.589 262.839 155.942 262.839Z" fill="#3F3D56"/>
<path d="M155.942 256.03C158.296 256.03 160.203 253.536 160.203 250.46C160.203 247.384 158.296 244.89 155.942 244.89C153.589 244.89 151.682 247.384 151.682 250.46C151.682 253.536 153.589 256.03 155.942 256.03Z" fill="#3F3D56"/>
<path d="M155.942 249.22C158.296 249.22 160.203 246.726 160.203 243.65C160.203 240.574 158.296 238.08 155.942 238.08C153.589 238.08 151.682 240.574 151.682 243.65C151.682 246.726 153.589 249.22 155.942 249.22Z" fill="#3F3D56"/>
<path d="M155.942 242.411C158.296 242.411 160.203 239.917 160.203 236.841C160.203 233.765 158.296 231.271 155.942 231.271C153.589 231.271 151.682 233.765 151.682 236.841C151.682 239.917 153.589 242.411 155.942 242.411Z" fill="#3F3D56"/>
<path d="M155.942 235.602C158.296 235.602 160.203 233.108 160.203 230.032C160.203 226.956 158.296 224.462 155.942 224.462C153.589 224.462 151.682 226.956 151.682 230.032C151.682 233.108 153.589 235.602 155.942 235.602Z" fill="#3F3D56"/>
<path d="M120.912 110.406C121.959 109.073 122.914 107.67 123.769 106.208L103.621 102.902L125.415 103.062C127.505 98.5182 128.645 93.5966 128.766 88.5979C128.887 83.5991 127.985 78.6283 126.117 73.9894L96.8752 89.1401L123.837 69.3318C121.31 64.9717 117.912 61.1779 113.854 58.1869C109.795 55.1958 105.164 53.0715 100.248 51.9462C95.3313 50.8209 90.2358 50.7188 85.2784 51.6462C80.321 52.5736 75.6079 54.5107 71.4327 57.3368C67.2574 60.1628 63.7094 63.8174 61.0098 68.0727C58.3101 72.3281 56.5166 77.0931 55.7409 82.071C54.9653 87.0489 55.224 92.133 56.5012 97.0066C57.7783 101.88 60.0465 106.439 63.1643 110.399C61.5285 112.475 60.1217 114.722 58.9683 117.099L85.1258 130.674L57.2402 121.321C55.2809 127.104 54.7965 133.283 55.8309 139.3C56.8653 145.317 59.3859 150.981 63.1643 155.78C58.9027 161.192 56.2519 167.693 55.5147 174.539C54.7776 181.385 55.984 188.3 58.996 194.494C62.008 200.688 66.704 205.91 72.5471 209.563C78.3903 213.217 85.1448 215.154 92.0384 215.154C98.932 215.154 105.686 213.217 111.53 209.563C117.373 205.91 122.069 200.688 125.081 194.494C128.093 188.3 129.299 181.385 128.562 174.539C127.825 167.693 125.174 161.192 120.912 155.78C126.004 149.311 128.772 141.321 128.772 133.093C128.772 124.864 126.004 116.874 120.912 110.406Z" fill="#FFA89E"/>
<path opacity="0.1" d="M55.3008 133.094C55.2885 141.325 58.0594 149.319 63.1644 155.779C58.9028 161.192 56.252 167.693 55.5148 174.539C54.7777 181.385 55.9841 188.3 58.9961 194.494C62.0081 200.688 66.7041 205.91 72.5472 209.563C78.3904 213.217 85.1449 215.154 92.0385 215.154C98.9321 215.154 105.687 213.217 111.53 209.563C117.373 205.91 122.069 200.688 125.081 194.494C128.093 188.3 129.299 181.385 128.562 174.539C127.825 167.693 125.174 161.192 120.913 155.779C125.835 149.535 55.3008 128.975 55.3008 133.094Z" fill="black"/>
<path d="M136.779 168.274C136.081 167.387 135.445 166.452 134.877 165.476L148.311 163.269L133.78 163.378C132.387 160.349 131.627 157.068 131.546 153.735C131.466 150.402 132.067 147.088 133.313 143.996L152.807 154.107L134.83 140.897C136.515 137.993 138.781 135.467 141.487 133.475C144.192 131.484 147.279 130.069 150.555 129.321C153.831 128.572 157.226 128.505 160.529 129.123C163.832 129.742 166.973 131.033 169.755 132.916C172.537 134.799 174.902 137.234 176.701 140.069C178.501 142.904 179.697 146.078 180.215 149.395C180.733 152.712 180.562 156.1 179.713 159.347C178.864 162.595 177.355 165.634 175.279 168.274C176.368 169.656 177.304 171.151 178.071 172.734L160.633 181.784L179.227 175.557C180.534 179.412 180.858 183.532 180.169 187.544C179.48 191.556 177.799 195.332 175.279 198.531C178.118 202.141 179.883 206.474 180.372 211.038C180.862 215.601 180.056 220.21 178.047 224.338C176.039 228.466 172.908 231.946 169.013 234.38C165.118 236.815 160.616 238.106 156.021 238.106C151.426 238.106 146.924 236.815 143.029 234.38C139.134 231.946 136.003 228.466 133.995 224.338C131.986 220.21 131.18 215.601 131.67 211.038C132.159 206.474 133.924 202.141 136.762 198.531C133.369 194.219 131.524 188.892 131.524 183.406C131.524 177.921 133.369 172.594 136.762 168.281L136.779 168.274Z" fill="#FFA197"/>
<path opacity="0.1" d="M180.522 183.388C180.53 188.876 178.682 194.206 175.279 198.515C178.118 202.124 179.883 206.458 180.372 211.021C180.862 215.585 180.056 220.194 178.047 224.321C176.038 228.449 172.908 231.929 169.013 234.364C165.118 236.799 160.616 238.09 156.021 238.09C151.426 238.09 146.924 236.799 143.029 234.364C139.134 231.929 136.003 228.449 133.994 224.321C131.986 220.194 131.18 215.585 131.67 211.021C132.159 206.458 133.924 202.124 136.762 198.515C133.497 194.361 180.522 180.664 180.522 183.388Z" fill="black" fill-opacity="0.5"/>
<path d="M0 284.997C0 284.997 41.0802 245.162 55.3008 258.563C69.5214 271.964 129.564 275.528 135.096 274.738C140.628 273.948 173.016 272.372 191.187 274.343C209.358 276.315 536.977 268.821 543.692 284.997H0Z" fill="#3F3D56"/>
<path opacity="0.1" d="M266.237 90.1003H247.763C248.209 89.5389 248.449 88.8422 248.445 88.1256C248.443 87.7206 248.365 87.3196 248.213 86.9441H256.734C257.572 86.9441 258.376 86.6116 258.968 86.0197C259.561 85.4278 259.894 84.6251 259.894 83.788C259.894 82.951 259.561 82.1482 258.968 81.5563C258.376 80.9644 257.572 80.6319 256.734 80.6319H205.8C204.963 80.6346 204.16 80.968 203.568 81.5593C202.976 82.1506 202.643 82.9518 202.64 83.788C202.64 84.1934 202.72 84.5948 202.875 84.9694H194.354C193.533 84.9963 192.755 85.3408 192.184 85.9301C191.614 86.5194 191.294 87.3073 191.294 88.1273C191.294 88.9473 191.614 89.7352 192.184 90.3244C192.755 90.9137 193.533 91.2582 194.354 91.2851H212.828C212.382 91.8451 212.142 92.5408 212.147 93.2564C212.149 94.0926 212.483 94.8938 213.075 95.4851C213.667 96.0764 214.469 96.4098 215.306 96.4125H266.237C267.075 96.4125 267.879 96.08 268.472 95.4881C269.064 94.8962 269.397 94.0934 269.397 93.2564C269.397 92.4193 269.064 91.6166 268.472 91.0247C267.879 90.4328 267.075 90.1003 266.237 90.1003Z" fill="#FF5745"/>
<path opacity="0.1" d="M349.584 135.46H331.109C331.561 134.901 331.808 134.204 331.808 133.486C331.809 133.081 331.73 132.679 331.576 132.304H340.098C340.936 132.304 341.739 131.972 342.332 131.38C342.925 130.788 343.258 129.985 343.258 129.148C343.258 128.311 342.925 127.508 342.332 126.916C341.739 126.325 340.936 125.992 340.098 125.992H289.15C288.313 125.995 287.51 126.328 286.918 126.919C286.326 127.511 285.993 128.312 285.99 129.148C285.989 129.553 286.068 129.955 286.222 130.33H277.7C276.88 130.357 276.102 130.701 275.531 131.29C274.96 131.88 274.641 132.667 274.641 133.487C274.641 134.307 274.96 135.095 275.531 135.685C276.102 136.274 276.88 136.618 277.7 136.645H296.175C295.729 137.205 295.488 137.901 295.493 138.617C295.496 139.453 295.83 140.254 296.422 140.845C297.014 141.437 297.816 141.77 298.653 141.773H349.584C350.422 141.773 351.226 141.44 351.818 140.848C352.411 140.256 352.744 139.454 352.744 138.617C352.744 137.779 352.411 136.977 351.818 136.385C351.226 135.793 350.422 135.46 349.584 135.46Z" fill="#FF5745"/>
<path opacity="0.1" d="M183.013 116.262H172.191C172.456 115.935 172.6 115.528 172.6 115.107C172.597 114.874 172.551 114.643 172.464 114.426H177.461C177.952 114.426 178.422 114.232 178.77 113.885C179.117 113.538 179.312 113.068 179.312 112.578C179.312 112.087 179.117 111.617 178.77 111.27C178.422 110.924 177.952 110.729 177.461 110.729H147.591C147.101 110.731 146.631 110.926 146.285 111.272C145.938 111.619 145.742 112.088 145.741 112.578C145.743 112.812 145.79 113.043 145.88 113.259H140.897C140.406 113.259 139.935 113.453 139.588 113.8C139.241 114.147 139.046 114.617 139.046 115.107C139.046 115.598 139.241 116.068 139.588 116.415C139.935 116.761 140.406 116.956 140.897 116.956H151.719C151.455 117.283 151.31 117.69 151.31 118.11C151.311 118.601 151.506 119.071 151.853 119.418C152.2 119.765 152.67 119.961 153.161 119.962H183.013C183.491 119.942 183.942 119.738 184.273 119.393C184.604 119.049 184.788 118.589 184.788 118.112C184.788 117.635 184.604 117.176 184.273 116.831C183.942 116.486 183.491 116.282 183.013 116.262Z" fill="#FF5745"/>
<path d="M235.011 266.99C234.904 267.694 234.705 268.38 234.418 269.032C235.583 269.462 236.799 269.743 238.035 269.866C238.114 269.883 238.196 269.871 238.267 269.832C238.359 269.761 238.345 269.618 238.331 269.492C238.309 268.819 238.437 268.149 238.706 267.531C239.388 265.636 240.061 263.738 240.724 261.838C239.545 261.304 237.104 261.627 236.109 262.519C235.192 263.343 235.233 265.839 235.011 266.99Z" fill="#A1616A"/>
<path d="M251.925 270.166C251.888 270.245 251.867 270.331 251.863 270.418C251.863 270.721 252.265 270.826 252.569 270.854C254.032 270.988 255.475 271.288 256.871 271.749C257.041 271.245 256.802 270.704 256.796 270.176C256.796 269.441 257.228 268.787 257.498 268.103C257.978 266.894 257.941 265.553 257.896 264.252C256.731 264.33 253.949 263.792 253.298 264.998C252.937 265.679 252.957 266.7 252.794 267.449C252.573 268.375 252.282 269.283 251.925 270.166Z" fill="#A1616A"/>
<path d="M244.992 217.84L241.924 218.02C241.724 218.01 241.527 218.067 241.365 218.184C241.235 218.332 241.161 218.521 241.157 218.718C240.748 221.782 241.467 224.911 241.085 227.975C240.932 229.181 240.611 230.359 240.363 231.543C239.943 233.522 239.715 235.534 239.487 237.543C239.338 238.537 239.299 239.546 239.371 240.549C239.459 241.393 239.712 242.217 239.742 243.065C239.74 244.068 239.564 245.063 239.224 246.007C238.715 247.629 238.076 249.208 237.315 250.729C236.658 252.046 235.904 253.33 235.505 254.746C234.871 257 235.165 259.455 234.411 261.671C234.224 262.216 233.972 262.778 234.07 263.343C234.203 264.075 234.916 264.596 235.649 264.736C236.39 264.828 237.142 264.771 237.861 264.569C239.057 264.313 240.329 264.017 241.17 263.132C241.66 262.547 242.035 261.875 242.275 261.15C242.83 259.789 243.383 258.406 243.891 257.017C244.109 256.359 244.371 255.717 244.675 255.094C244.954 254.562 245.302 254.072 245.598 253.541C246.087 252.629 246.484 251.671 246.784 250.681C248.973 243.974 249.641 236.722 252.947 230.491C253.104 230.195 253.124 229.811 253.288 229.531C253.607 230.545 253.762 231.604 253.745 232.667C253.82 235.082 253.762 237.5 253.571 239.909C253.435 241.666 253.23 243.419 253.189 245.183C253.189 245.986 253.189 246.793 253.206 247.6V248.257C253.233 249.404 253.261 250.552 253.373 251.692C253.854 256.404 252.368 260.987 252.903 265.692C252.906 265.859 252.961 266.021 253.06 266.155C253.288 266.4 253.694 266.268 254.004 266.135C255.027 265.692 256.117 265.42 257.228 265.331C257.567 265.336 257.902 265.261 258.207 265.113C258.697 264.821 258.837 264.184 258.926 263.619C259.669 259.036 260.411 254.454 261.152 249.871C261.349 248.774 261.49 247.669 261.574 246.558C261.659 245.114 261.554 243.664 261.694 242.227C261.888 240.185 262.716 238.244 263.336 236.303C263.657 235.282 263.981 234.277 264.274 233.256C264.567 232.235 264.836 231.176 265.075 230.127C265.484 228.302 265.804 226.419 265.521 224.571C265.238 222.722 264.264 220.897 262.621 220.005C261.417 219.348 260.006 219.249 258.646 219.099C254.764 218.674 250.895 217.738 247.006 218.078C246.331 218.139 245.687 217.799 244.992 217.84Z" fill="#3F3D56"/>
<path d="M236.388 280.332C236.593 280.014 236.756 279.671 236.872 279.311L238.13 275.906C238.528 274.89 238.869 273.852 239.153 272.798C239.463 271.537 239.602 270.241 239.569 268.944C238.288 268.936 237.015 268.757 235.782 268.412C235.317 268.252 234.833 268.15 234.343 268.109C234.008 268.119 233.679 268.195 233.374 268.335C233.069 268.474 232.796 268.672 232.569 268.919C232.343 269.166 232.168 269.456 232.056 269.771C231.944 270.086 231.897 270.421 231.916 270.755C231.951 270.96 231.97 271.167 231.971 271.375C231.944 271.581 231.884 271.783 231.794 271.97L230.451 275.239C230.071 276.03 229.84 276.884 229.769 277.758C229.673 280.816 234.456 283.114 236.388 280.332Z" fill="#3F3D56"/>
<path d="M249.341 280.036C249.273 280.548 249.273 281.066 249.341 281.578C249.607 283.018 251.001 284.111 252.463 284.213C253.199 284.238 253.93 284.081 254.59 283.756C255.251 283.431 255.821 282.949 256.25 282.351C256.528 281.987 256.741 281.578 256.881 281.142C256.995 280.723 257.066 280.293 257.092 279.859L257.634 274.129C257.712 273.325 258.04 272.164 257.634 271.405C257.293 270.762 256.465 270.551 255.827 270.309C254.768 269.875 253.62 269.703 252.48 269.808C250.493 269.975 250.513 272.001 250.214 273.618C249.823 275.747 249.532 277.886 249.341 280.036Z" fill="#3F3D56"/>
<path d="M249.931 163.661C249.014 164.945 247.678 165.888 246.778 167.185C245.963 168.368 245.555 169.784 245.615 171.22C245.646 171.955 245.8 172.707 245.615 173.419C245.433 173.963 245.133 174.461 244.736 174.876C243.253 176.613 241.313 177.901 239.136 178.594C238.873 178.676 238.546 178.853 238.611 179.118C238.657 179.236 238.743 179.333 238.853 179.394L243.284 182.564C245.885 184.426 248.499 186.309 251.376 187.702C256.507 190.186 262.261 191.09 267.908 190.299C267.184 189.17 266.735 187.888 266.595 186.554C266.425 184.954 266.711 183.34 266.68 181.73C266.657 180.089 266.309 178.469 265.658 176.963C265.276 176.088 264.792 175.261 264.499 174.352C264.191 173.243 264.026 172.098 264.008 170.947L263.78 167.137C263.771 166.43 263.664 165.728 263.463 165.05C263.271 164.531 262.997 164.046 262.652 163.614C261.029 161.496 258.561 160.59 255.978 160.369C254.849 160.274 253.469 160.182 252.429 160.672C251.185 161.281 250.681 162.619 249.931 163.661Z" fill="#3F3D56"/>
<path d="M249.508 177.402C249.369 177.753 249.154 178.068 248.877 178.325C248.6 178.582 248.27 178.774 247.909 178.887C247.188 179.111 246.436 179.226 245.68 179.227L244.054 179.302C243.874 179.286 243.695 179.34 243.553 179.452C243.465 179.553 243.415 179.682 243.41 179.816C243.308 180.681 243.812 181.488 244.317 182.199C245.932 184.46 247.868 186.608 250.394 187.763C252.32 188.643 254.475 188.892 256.551 188.474C258.627 188.056 260.516 186.991 261.949 185.434C262.115 185.284 262.228 185.085 262.27 184.865C262.263 184.702 262.214 184.542 262.128 184.403C262.042 184.263 261.922 184.148 261.779 184.069C261.24 183.67 260.606 183.411 260.075 183.017C259.16 182.319 258.508 181.335 258.224 180.221C257.943 179.114 257.891 177.962 258.07 176.834C256.049 176.258 253.847 176.715 251.822 176.153C251.349 176.023 250.459 175.526 249.961 175.812C249.464 176.098 249.665 176.919 249.508 177.402Z" fill="#A1616A"/>
<path opacity="0.1" d="M249.508 177.402C249.369 177.753 249.154 178.068 248.877 178.325C248.6 178.582 248.27 178.774 247.909 178.887C247.188 179.111 246.436 179.226 245.68 179.227L244.054 179.302C243.874 179.286 243.695 179.34 243.553 179.452C243.465 179.553 243.415 179.682 243.41 179.816C243.308 180.681 243.812 181.488 244.317 182.199C245.932 184.46 247.868 186.608 250.394 187.763C252.32 188.643 254.475 188.892 256.551 188.474C258.627 188.056 260.516 186.991 261.949 185.434C262.115 185.284 262.228 185.085 262.27 184.865C262.263 184.702 262.214 184.542 262.128 184.403C262.042 184.263 261.922 184.148 261.779 184.069C261.24 183.67 260.606 183.411 260.075 183.017C259.16 182.319 258.508 181.335 258.224 180.221C257.943 179.114 257.891 177.962 258.07 176.834C256.049 176.258 253.847 176.715 251.822 176.153C251.349 176.023 250.459 175.526 249.961 175.812C249.464 176.098 249.665 176.919 249.508 177.402Z" fill="black"/>
<path d="M254.645 180.773C258.404 180.773 261.452 177.729 261.452 173.974C261.452 170.219 258.404 167.175 254.645 167.175C250.885 167.175 247.838 170.219 247.838 173.974C247.838 177.729 250.885 180.773 254.645 180.773Z" fill="#A1616A"/>
<path d="M259.597 180.902C258.337 181.443 257.029 181.867 255.691 182.169C254.344 182.468 252.941 182.392 251.635 181.948C250.751 181.558 249.909 181.079 249.123 180.518C247.712 179.615 246.171 178.815 244.501 178.652C243.72 178.57 242.868 178.652 242.251 179.135C241.671 179.664 241.316 180.395 241.259 181.178C241.034 182.799 241.419 184.433 241.764 186.033C243.069 192.11 243.809 198.467 242.347 204.514C241.58 207.724 242.408 211.064 242.52 214.363C242.507 215.497 242.657 216.626 242.967 217.717C243.325 218.789 244.047 219.794 245.09 220.233C246.062 220.641 247.163 220.516 248.213 220.43C249.464 220.332 250.769 220.315 251.904 220.839C252.709 221.213 253.462 221.86 254.341 221.782C254.791 221.741 255.2 221.51 255.647 221.442C256.543 221.292 257.402 221.782 258.217 222.184C260.235 223.182 262.443 223.74 264.693 223.821C265.842 221.122 265.249 218.085 265.375 215.153C265.426 214.057 265.59 212.967 265.654 211.871C265.709 210.549 265.692 209.225 265.603 207.905L265.187 198.984C265.068 196.557 266.309 194.18 266.21 191.756C266.141 190.627 265.985 189.505 265.743 188.399C265.668 188.025 265.59 187.654 265.484 187.289C264.734 184.733 262.576 182.863 260.514 181.185C260.397 181.065 260.252 180.976 260.092 180.926C259.932 180.877 259.762 180.869 259.597 180.902Z" fill="#FF5745"/>
<path d="M248.22 220.713C248.247 223.096 247.388 225.401 246.546 227.638C246.287 228.319 245.97 229.075 245.309 229.392C244.647 229.708 243.908 229.504 243.264 229.252C242.662 229.024 242.078 228.755 241.515 228.445C240.922 228.105 240.254 227.74 239.616 227.958C238.836 228.224 238.594 229.194 238.488 230.001C237.422 230.015 236.357 229.95 235.301 229.807C235.202 229.801 235.106 229.771 235.022 229.719C234.918 229.618 234.854 229.482 234.844 229.337C234.735 228.769 234.623 228.203 234.503 227.635C234.469 227.458 234.34 227.223 234.163 227.294C234.306 225.088 233.846 222.892 233.679 220.689C233.583 219.573 233.594 218.45 233.713 217.336C233.869 216.221 234.083 215.115 234.353 214.023C234.878 211.687 235.887 209.314 235.945 206.945C235.957 206.469 235.926 205.992 235.853 205.522C235.372 202.55 234.892 199.577 234.415 196.601C234.292 195.859 234.173 195.11 233.999 194.378C233.869 193.833 233.747 193.306 233.607 192.781C233.522 192.461 233.43 192.145 233.324 191.825C234.233 189.328 235.142 186.831 236.051 184.334C236.258 183.719 236.509 183.12 236.801 182.54C237.485 181.258 238.551 180.219 239.852 179.568C240.239 179.421 240.589 179.188 240.874 178.887C241.007 178.713 241.089 178.502 241.215 178.322C241.696 177.641 242.681 177.586 243.502 177.736C244.255 177.869 245.036 178.155 245.493 178.758C245.674 179.034 245.821 179.331 245.929 179.643C246.474 180.964 247.022 182.284 247.572 183.602C248.039 183.827 248.254 184.437 248.254 184.964C248.254 185.945 248.114 186.922 248.155 187.902C248.155 187.974 248.155 188.042 248.175 188.114C248.298 188.995 248.922 189.738 249.133 190.623C249.944 194.01 248.762 197.497 248.066 200.922C248.039 201.058 248.012 201.191 247.988 201.327C247.609 203.317 247.426 205.338 247.442 207.364C247.44 208.204 247.499 209.044 247.62 209.876C247.732 210.608 247.913 211.33 247.995 212.069C248.073 213.095 248.073 214.127 247.995 215.153C247.899 216.995 248.199 218.851 248.22 220.713Z" fill="#454B69"/>
<path d="M251.028 191.532C251.267 191.947 251.401 192.415 251.417 192.893C251.415 193.1 251.343 193.299 251.212 193.459C251.11 193.556 250.985 193.627 250.849 193.664C250.713 193.702 250.569 193.705 250.432 193.673C250.158 193.61 249.9 193.495 249.672 193.333C249.362 193.167 249.11 192.914 248.946 192.604C248.89 192.457 248.854 192.304 248.836 192.148L248.656 190.997C248.602 190.773 248.602 190.54 248.656 190.316C248.809 189.843 249.498 189.005 250.019 189.414C250.541 189.822 250.773 190.987 251.028 191.532Z" fill="#454B69"/>
<path d="M270.982 193.425C270.781 192.9 270.181 192.679 269.69 192.403C268.668 191.835 267.959 190.841 267.42 189.806C266.881 188.771 266.479 187.667 265.896 186.66C265.808 186.475 265.674 186.316 265.508 186.197C265.423 186.14 265.321 186.113 265.219 186.119C265.117 186.125 265.02 186.164 264.942 186.231C264.87 186.324 264.826 186.436 264.816 186.554C264.693 187.307 264.908 188.066 265.024 188.818C265.209 190.095 265.111 191.397 264.738 192.633C264.364 193.868 263.724 195.007 262.863 195.968C262.157 196.748 261.281 197.432 260.903 198.413C260.668 199.184 260.599 199.996 260.698 200.796L260.933 205.14C261.149 209.56 260.649 213.985 259.451 218.245C258.769 220.696 257.617 223.171 258.087 225.67C258.265 226.627 258.68 227.577 258.51 228.537C258.456 228.719 258.456 228.913 258.51 229.095C258.59 229.232 258.709 229.342 258.851 229.412L261.118 230.89L263.163 224.84C263.353 224.324 263.504 223.795 263.616 223.256C263.708 222.641 263.753 222.02 263.749 221.397C263.887 215.955 264.592 210.542 265.852 205.246C266.008 204.481 266.237 203.734 266.534 203.012C267.123 201.688 268.115 200.592 269.094 199.516C269.117 199.015 269.053 198.515 269.094 198.011C269.099 197.133 269.224 196.26 269.465 195.416C269.731 194.589 270.188 193.792 270.982 193.425Z" fill="#454B69"/>
<path d="M267.543 199.076C267.464 200.51 267.485 201.946 267.608 203.377L267.948 209.076C267.957 209.838 268.071 210.596 268.289 211.326C268.562 212.103 269.066 212.784 269.329 213.567C269.417 213.832 269.479 214.111 269.567 214.38C269.68 214.721 269.833 215.017 269.976 215.334C270.897 217.414 271.149 219.722 271.214 221.993C271.279 224.264 271.163 226.542 271.394 228.803C270.805 228.966 270.187 228.996 269.585 228.891C269.363 228.83 269.133 228.799 268.903 228.799C268.705 228.827 268.513 228.882 268.33 228.963C267.522 229.253 266.66 229.364 265.805 229.288C264.949 229.211 264.121 228.949 263.377 228.52C262.932 228.245 262.509 227.936 262.113 227.594C261.776 227.338 261.484 227.029 261.247 226.678C260.978 226.168 260.844 225.599 260.855 225.023C260.777 222.712 261.537 220.465 262.052 218.214C262.508 216.033 262.85 213.829 263.074 211.612C263.452 208.368 263.35 205.031 264.097 201.848C264.166 201.387 264.354 200.951 264.642 200.585C264.896 200.341 265.195 200.149 265.521 200.019C266.186 199.696 266.864 199.39 267.543 199.076Z" fill="#454B69"/>
<path opacity="0.1" d="M270.982 193.425C270.781 192.9 270.181 192.679 269.69 192.403C268.668 191.835 267.959 190.841 267.42 189.806C266.881 188.771 266.479 187.667 265.896 186.66C265.808 186.475 265.674 186.316 265.508 186.197C265.423 186.14 265.321 186.113 265.219 186.119C265.117 186.125 265.02 186.164 264.942 186.231C264.87 186.324 264.826 186.436 264.816 186.554C264.693 187.307 264.908 188.066 265.024 188.818C265.209 190.095 265.111 191.397 264.738 192.633C264.364 193.868 263.724 195.007 262.863 195.968C262.157 196.748 261.281 197.432 260.903 198.413C260.668 199.184 260.599 199.996 260.698 200.796L260.933 205.14C261.149 209.56 260.649 213.985 259.451 218.245C258.769 220.696 257.617 223.171 258.087 225.67C258.265 226.627 258.68 227.577 258.51 228.537C258.456 228.719 258.456 228.913 258.51 229.095C258.59 229.232 258.709 229.342 258.851 229.412L261.118 230.89L263.163 224.84C263.353 224.324 263.504 223.795 263.616 223.256C263.708 222.641 263.753 222.02 263.749 221.397C263.887 215.955 264.592 210.542 265.852 205.246C266.008 204.481 266.237 203.734 266.534 203.012C267.123 201.688 268.115 200.592 269.094 199.516C269.117 199.015 269.053 198.515 269.094 198.011C269.099 197.133 269.224 196.26 269.465 195.416C269.731 194.589 270.188 193.792 270.982 193.425Z" fill="black"/>
<path d="M268.456 229.191C268.383 229.447 268.227 229.672 268.013 229.831C267.785 229.96 267.413 229.851 267.393 229.589C267.011 229.538 266.711 229.987 266.343 230.018C265.975 230.049 265.634 229.678 265.273 229.759C265.041 229.821 264.823 230.066 264.611 229.957C264.523 229.913 264.468 229.817 264.376 229.783C264.23 229.736 264.09 229.872 263.94 229.906C263.623 229.977 263.391 229.589 263.381 229.266C263.371 228.942 263.466 228.585 263.316 228.306C263.298 228.258 263.263 228.219 263.217 228.197C263.115 228.149 263.003 228.244 262.934 228.336C262.682 228.677 262.611 229.15 262.355 229.504C262.099 229.858 261.489 230.025 261.257 229.657C261.166 229.465 261.149 229.245 261.21 229.041C261.363 228.169 261.704 227.233 262.488 226.825C263.17 226.484 263.988 226.613 264.738 226.77C265.781 226.997 266.822 227.232 267.863 227.475C268.139 227.54 268.801 227.574 268.92 227.894C269.039 228.214 268.565 228.918 268.456 229.191Z" fill="#A1616A"/>
<path d="M256.179 169.173C256.519 171.008 257.569 172.626 258.411 174.297C259.253 175.969 259.925 177.869 259.468 179.68C259.273 180.303 259.045 180.916 258.786 181.515C258.448 182.577 258.213 183.67 258.084 184.777C257.859 186.282 257.634 187.81 257.815 189.322C257.995 190.834 258.64 192.352 259.86 193.272L259.764 192.591C260.282 192.864 260.766 193.197 261.206 193.581C261.696 192.718 262.041 191.781 262.229 190.807L264.543 192.601C265.566 193.384 266.711 194.208 267.979 194.051L266.957 191.699C266.674 191.045 266.391 190.395 266.057 189.765C265.831 189.393 265.646 188.998 265.504 188.587C265.417 188.23 265.367 187.865 265.354 187.497C264.946 181.484 263.822 175.541 262.007 169.793C261.646 168.476 261.103 167.216 260.395 166.048C260.048 165.498 259.591 165.026 259.052 164.662C258.203 164.121 257.16 164.005 256.158 163.903C255.459 163.804 254.751 163.788 254.048 163.855C253.332 163.973 252.641 164.21 252.003 164.557C249.982 165.587 248.333 167.221 247.286 169.231C246.516 170.685 246.148 172.317 246.219 173.96C246.352 175.697 248.008 174.907 249.126 174.474C251.894 173.395 254.553 171.72 256.179 169.173Z" fill="#3F3D56"/>
<path opacity="0.1" d="M251.028 191.532C251.267 191.947 251.401 192.415 251.417 192.893C251.415 193.1 251.343 193.299 251.212 193.459C251.11 193.556 250.985 193.627 250.849 193.664C250.713 193.702 250.569 193.705 250.432 193.673C250.158 193.61 249.9 193.495 249.672 193.333C249.362 193.167 249.11 192.914 248.946 192.604C248.89 192.457 248.854 192.304 248.836 192.148L248.656 190.997C248.602 190.773 248.602 190.54 248.656 190.316C248.809 189.843 249.498 189.005 250.019 189.414C250.541 189.822 250.773 190.987 251.028 191.532Z" fill="black"/>
<path d="M253.159 179.626L251.88 189.189L257.498 188.849L259.325 179.626H253.159Z" fill="#454B69"/>
<path d="M255.923 182.898C256.158 182.898 256.349 182.707 256.349 182.472C256.349 182.237 256.158 182.046 255.923 182.046C255.688 182.046 255.497 182.237 255.497 182.472C255.497 182.707 255.688 182.898 255.923 182.898Z" fill="white"/>
<g opacity="0.1">
<path opacity="0.1" d="M259.614 178.529C259.672 178.363 259.724 178.189 259.768 178.026C260.221 176.211 259.55 174.311 258.708 172.639C257.866 170.968 256.83 169.354 256.479 167.515C254.853 170.062 252.201 171.737 249.43 172.813C248.312 173.245 246.652 174.032 246.519 172.299C246.486 171.913 246.486 171.524 246.519 171.138C246.256 172.038 246.152 172.977 246.212 173.913C246.345 175.649 248.001 174.859 249.119 174.427C251.894 173.354 254.542 171.679 256.168 169.133C256.509 170.968 257.559 172.585 258.401 174.24C259.083 175.588 259.645 177.065 259.614 178.529Z" fill="black"/>
<path opacity="0.1" d="M264.847 190.946C264.074 190.351 263.303 189.753 262.532 189.152C262.345 190.127 262 191.066 261.51 191.93C261.07 191.544 260.586 191.21 260.068 190.936L260.163 191.617C258.95 190.698 258.306 189.179 258.118 187.667C257.931 186.156 258.159 184.627 258.384 183.122C258.408 182.959 258.435 182.782 258.459 182.632C258.299 183.313 258.193 184.031 258.087 184.736C257.862 186.244 257.637 187.77 257.818 189.281C257.999 190.793 258.643 192.311 259.863 193.231L259.768 192.55C260.284 192.826 260.768 193.159 261.21 193.544C261.698 192.68 262.044 191.743 262.232 190.769C263.005 191.366 263.776 191.964 264.547 192.563C265.569 193.343 266.715 194.17 267.983 194.014L267.246 192.311C266.377 192.097 265.573 191.511 264.847 190.946Z" fill="black"/>
</g>
<path d="M250.077 184.716C250.608 184.009 251.252 183.395 251.983 182.898C252.096 182.815 252.235 182.776 252.375 182.789C252.484 182.812 252.576 182.894 252.688 182.915C252.817 182.924 252.946 182.893 253.056 182.826L254.631 182.07C254.861 181.939 255.12 181.864 255.384 181.852C255.518 181.852 255.647 181.899 255.747 181.986C255.848 182.073 255.914 182.194 255.933 182.326C255.933 182.618 255.644 182.816 255.384 182.962C254.603 183.407 253.863 183.922 253.176 184.501C252.835 184.804 252.446 185.305 252.712 185.693C252.824 185.805 252.961 185.889 253.111 185.939C253.261 185.99 253.421 186.004 253.578 185.982C254.149 186.009 254.722 185.966 255.282 185.853C255.732 185.74 256.155 185.54 256.608 185.434C257.025 185.351 257.448 185.309 257.873 185.308C258.121 185.27 258.375 185.325 258.585 185.461C258.773 185.621 258.756 186.006 258.514 186.054C258.854 186.506 258.554 187.174 258.108 187.514C257.661 187.855 257.085 187.994 256.618 188.284C257.164 188.09 257.808 187.902 258.292 188.222C258.365 188.265 258.42 188.333 258.445 188.413C258.476 188.573 258.306 188.696 258.156 188.754C255.92 189.795 253.271 189.434 250.929 190.207C249.938 190.536 249.024 191.063 248.243 191.756C248.608 191.416 246.362 189.033 246.556 188.352C246.713 187.793 247.841 187.082 248.261 186.649C248.888 186.039 249.493 185.394 250.077 184.716Z" fill="#A1616A"/>
<path opacity="0.1" d="M249.992 195.539C249.953 195.848 249.994 196.162 250.111 196.451C250.295 197.221 250.026 198.028 249.655 198.729C249.225 199.524 248.688 200.256 248.059 200.905C247.313 201.675 246.508 202.388 245.653 203.036C243.979 204.348 242.226 205.555 240.404 206.652C239.945 206.968 239.43 207.193 238.887 207.316C238.464 207.368 238.036 207.362 237.615 207.295C237.048 207.247 236.489 207.132 235.949 206.955C235.96 206.479 235.93 206.002 235.857 205.532C235.375 202.56 234.895 199.587 234.418 196.611C234.295 195.869 234.176 195.12 234.002 194.388C233.873 193.843 233.75 193.316 233.61 192.791C233.61 192.791 233.61 192.764 233.61 192.754C233.951 191.896 234.95 191.351 235.049 190.439C236.491 190.303 237.844 190.143 239.289 190.01C239.486 191.358 239.392 192.732 239.013 194.041C239.124 194.049 239.235 194.023 239.33 193.965C239.424 193.907 239.499 193.82 239.541 193.717C239.647 193.523 239.681 193.299 239.77 193.094C240.111 192.318 241.109 192.134 241.815 191.685C243.056 190.915 243.591 189.247 244.927 188.668C245.022 188.616 245.133 188.596 245.24 188.614C245.534 188.692 245.581 189.206 245.898 189.186C245.996 189.167 246.085 189.117 246.151 189.043C246.696 188.549 247.378 188.141 247.92 187.65C247.995 187.797 248.066 187.943 248.138 188.09C248.897 189.624 249.655 191.159 250.411 192.696C250.708 193.295 251.038 193.932 251.628 194.249C251.4 194.93 250.207 194.848 249.992 195.539Z" fill="black"/>
<path d="M234.636 189.72C234.541 190.636 233.535 191.181 233.198 192.039C233.062 192.496 233.005 192.973 233.031 193.449C232.997 194.81 232.69 196.111 232.52 197.442C232.349 198.773 232.315 200.166 232.806 201.419C233.099 202.161 233.569 202.835 233.771 203.608C233.907 204.126 233.917 204.684 234.159 205.161C234.687 206.182 236.034 206.448 237.189 206.574C237.61 206.64 238.038 206.647 238.461 206.594C239.005 206.47 239.521 206.245 239.981 205.93C241.802 204.833 243.554 203.625 245.227 202.314C246.785 201.099 248.294 199.751 249.228 198.007C249.6 197.306 249.869 196.499 249.689 195.73C249.568 195.442 249.527 195.127 249.569 194.817C249.784 194.136 250.974 194.208 251.233 193.53C250.643 193.217 250.312 192.58 250.019 191.981L247.528 186.932C246.982 187.426 246.3 187.834 245.759 188.328C245.691 188.402 245.601 188.452 245.503 188.471C245.2 188.491 245.138 187.977 244.845 187.899C244.739 187.882 244.63 187.9 244.535 187.95C243.195 188.532 242.66 190.2 241.419 190.97C240.697 191.419 239.715 191.603 239.374 192.379C239.286 192.58 239.252 192.808 239.146 193.003C239.106 193.108 239.033 193.199 238.938 193.26C238.843 193.321 238.731 193.35 238.618 193.343C238.998 192.035 239.092 190.66 238.894 189.312C237.435 189.428 236.082 189.588 234.636 189.72Z" fill="#454B69"/>
<path d="M268.337 228.963C268.429 228.929 268.521 228.891 268.613 228.864C268.781 228.713 268.899 228.516 268.954 228.298C269.009 228.08 268.997 227.85 268.92 227.638C268.801 227.318 268.139 227.298 267.863 227.22C266.822 226.97 265.781 226.736 264.738 226.518C263.988 226.358 263.166 226.219 262.488 226.569C262.236 226.702 262.028 227.145 261.857 227.369L262.12 227.594C262.403 227.829 262.692 228.061 262.992 228.275C263.019 228.242 263.054 228.218 263.094 228.206C263.134 228.193 263.177 228.192 263.217 228.204C263.263 228.226 263.298 228.265 263.316 228.312C263.352 228.379 263.376 228.452 263.388 228.527C264.131 228.956 264.959 229.217 265.814 229.292C266.669 229.368 267.53 229.255 268.337 228.963Z" fill="#454B69"/>
<path d="M444.049 260.952C444.049 260.952 445.538 266.08 446.531 267.404C447.523 268.727 448.351 270.878 447.854 271.209C447.358 271.54 446.365 275.51 447.689 275.675C449.012 275.841 451.99 271.374 452.156 269.885C452.321 268.396 452.983 263.102 452.983 263.102C452.983 263.102 454.141 258.47 452.321 258.139C450.501 257.809 447.689 257.643 447.689 257.643L444.049 260.952Z" fill="#2F2E41"/>
<path d="M437.101 266.411C437.101 266.411 434.95 272.036 434.454 272.367C433.958 272.698 432.138 275.675 435.778 275.675C439.417 275.675 441.402 274.683 441.402 274.683L442.56 273.359C442.56 273.359 442.56 269.885 442.23 269.389C441.899 268.893 442.23 266.411 442.23 266.411H437.101Z" fill="#2F2E41"/>
<path d="M422.378 214.961C422.378 214.961 419.731 232.828 422.047 238.618C424.363 244.409 426.679 246.063 426.679 246.063L444.215 262.441C444.215 262.441 449.674 259.628 449.178 257.809C449.178 257.809 448.02 257.147 447.854 256.651C447.689 256.154 445.538 255.989 445.538 255.989C445.538 255.989 444.546 254.831 444.546 254.169C444.546 253.507 435.943 241.762 433.131 240.934C433.131 240.934 431.642 239.115 431.807 238.784C431.973 238.453 431.311 237.295 431.311 237.295L432.965 230.843L443.388 229.189C443.388 229.189 447.689 213.969 444.049 212.811C440.41 211.653 422.378 214.961 422.378 214.961Z" fill="#2F2E41"/>
<path d="M443.057 226.542L443.388 229.189C443.388 229.189 443.388 236.137 443.057 236.799C442.726 237.46 442.56 238.453 443.057 239.115C443.553 239.776 444.38 241.431 444.049 242.092C443.718 242.754 444.711 261.448 443.388 262.772C442.064 264.095 442.56 265.749 442.726 265.915C442.891 266.08 442.56 266.742 442.56 266.742C442.56 266.742 435.778 267.9 436.274 266.742C436.77 265.584 436.77 264.922 437.101 264.591C437.432 264.26 437.101 263.764 437.101 263.764C437.101 263.764 437.597 258.47 437.101 258.139C436.605 257.809 435.116 241.927 435.116 241.762C435.116 241.596 434.62 241.265 434.62 240.604C434.62 239.942 434.62 237.791 433.792 237.46C432.965 237.129 433.131 229.023 433.131 229.023L443.057 226.542Z" fill="#2F2E41"/>
<path d="M431.311 167.482C431.311 167.482 431.973 172.445 433.958 173.438C435.943 174.43 437.267 174.927 437.267 174.927L435.612 180.717L434.95 185.68H427.341L423.205 182.371L424.528 176.912L425.19 175.919C425.19 175.919 426.017 172.28 425.355 171.122C424.694 169.964 431.311 167.482 431.311 167.482Z" fill="#FFB9B9"/>
<path d="M428.002 179.559L429.16 181.709C429.16 181.709 429.987 178.732 431.145 178.235C432.303 177.739 435.116 176.912 435.116 176.25C435.116 175.588 434.95 173.934 435.612 173.934C436.274 173.934 442.726 175.919 443.718 176.581C444.711 177.243 444.876 177.904 444.876 177.904L443.057 196.929C443.057 196.929 445.704 205.863 444.876 209.337C444.049 212.811 443.387 213.307 441.402 213.803C439.417 214.3 440.575 212.645 434.785 214.3C428.995 215.954 425.355 215.458 424.032 215.458C422.708 215.458 421.881 216.12 421.55 216.285C421.219 216.45 421.385 215.458 422.543 213.969C423.701 212.48 423.205 209.998 423.205 209.998C423.205 209.998 421.881 205.697 422.708 204.043C423.536 202.389 424.694 200.238 423.701 199.576C422.708 198.914 421.385 193.951 421.385 193.951L417.745 181.048L425.19 175.919C425.19 175.919 424.859 178.235 426.017 178.732C427.175 179.228 428.002 179.559 428.002 179.559Z" fill="#575A89"/>
<path d="M418.738 180.882H417.746C417.746 180.882 416.091 183.695 416.091 185.68C416.091 187.665 416.918 198.914 416.918 198.914L421.716 203.877L422.874 200.072L423.205 191.635L418.738 180.882Z" fill="#575A89"/>
<path d="M421.385 198.418C421.385 198.418 415.926 196.929 416.091 199.245C416.257 201.561 417.084 204.374 419.731 205.035C422.378 205.697 423.205 202.058 423.205 202.058C423.205 202.058 423.536 198.749 421.385 198.418Z" fill="#575A89"/>
<path d="M441.899 206.028C441.899 206.028 441.568 213.638 439.583 214.465L444.38 215.623C444.38 215.623 446.696 207.682 446.365 207.351C446.035 207.021 441.899 206.028 441.899 206.028Z" fill="#FFB9B9"/>
<path d="M413.523 190.538L416.364 189.297C416.471 189.251 416.591 189.248 416.699 189.29C416.806 189.333 416.893 189.416 416.939 189.522L420.098 196.752C420.154 196.882 420.157 197.029 420.106 197.16C420.054 197.292 419.952 197.398 419.823 197.455L417.159 198.618C417.029 198.675 416.882 198.678 416.751 198.626C416.619 198.574 416.513 198.473 416.457 198.343L413.298 191.113C413.275 191.06 413.263 191.004 413.262 190.946C413.261 190.889 413.271 190.832 413.292 190.779C413.313 190.725 413.344 190.677 413.384 190.635C413.423 190.594 413.471 190.561 413.523 190.538Z" fill="#2F2E41"/>
<path opacity="0.1" d="M413.523 190.538L416.364 189.297C416.471 189.251 416.591 189.248 416.699 189.29C416.806 189.333 416.893 189.416 416.939 189.522L420.098 196.752C420.154 196.882 420.157 197.029 420.106 197.16C420.054 197.292 419.952 197.398 419.823 197.455L417.159 198.618C417.029 198.675 416.882 198.678 416.751 198.626C416.619 198.574 416.513 198.473 416.457 198.343L413.298 191.113C413.275 191.06 413.263 191.004 413.262 190.946C413.261 190.889 413.271 190.832 413.292 190.779C413.313 190.725 413.344 190.677 413.384 190.635C413.423 190.594 413.471 190.561 413.523 190.538Z" fill="black"/>
<path d="M413.685 190.907L416.162 189.825C416.268 189.779 416.388 189.776 416.496 189.819C416.603 189.861 416.69 189.944 416.736 190.05L419.734 196.911C419.79 197.041 419.793 197.188 419.742 197.32C419.69 197.451 419.588 197.557 419.459 197.614L417.159 198.618C417.029 198.675 416.882 198.678 416.751 198.626C416.619 198.574 416.513 198.473 416.457 198.343L413.459 191.482C413.413 191.376 413.411 191.256 413.453 191.148C413.495 191.04 413.579 190.953 413.685 190.907Z" fill="#2F2E41"/>
<path d="M415.963 193.834C416.365 193.658 416.546 193.185 416.368 192.778C416.19 192.37 415.72 192.182 415.318 192.358C414.916 192.533 414.734 193.006 414.912 193.414C415.09 193.821 415.56 194.009 415.963 193.834Z" fill="#F2F2F2"/>
<path opacity="0.1" d="M443.139 180.138L444.215 178.566C444.215 178.566 448.185 184.687 447.854 188.823C447.523 192.959 447.193 193.124 447.193 193.786C447.193 194.448 446.365 194.448 447.193 195.275C448.02 196.102 449.178 197.26 448.516 197.922C447.854 198.584 447.358 198.584 447.523 199.411C447.629 200.012 447.685 200.62 447.689 201.23C447.689 201.23 446.283 203.96 445.786 203.96C445.29 203.96 440.575 208.344 440.575 207.848C440.575 207.352 441.072 203.877 441.072 203.381C441.072 202.885 441.237 201.23 441.568 200.734C441.899 200.238 441.899 200.403 441.568 199.907C441.237 199.411 441.237 199.907 441.237 199.411C441.237 198.914 441.402 198.253 440.906 198.087C440.41 197.922 439.914 198.087 440.244 197.26C440.575 196.433 440.244 195.771 440.079 195.771C439.914 195.771 439.086 195.606 439.583 195.109C440.079 194.613 438.59 185.018 438.59 185.018C438.59 185.018 438.838 182.619 443.139 180.138Z" fill="black"/>
<path d="M442.229 176.581L445.042 177.904C445.042 177.904 449.012 184.025 448.681 188.161C448.351 192.297 448.02 192.463 448.02 193.124C448.02 193.786 447.192 193.786 448.02 194.613C448.847 195.44 450.005 196.598 449.343 197.26C448.681 197.922 448.185 197.922 448.351 198.749C448.456 199.35 448.512 199.959 448.516 200.569C448.516 200.569 447.027 208.51 446.531 208.51C446.034 208.51 441.402 207.682 441.402 207.186C441.402 206.69 441.899 203.216 441.899 202.719C441.899 202.223 442.064 200.569 442.395 200.072C442.726 199.576 442.726 199.742 442.395 199.245C442.064 198.749 442.064 199.245 442.064 198.749C442.064 198.253 442.23 197.591 441.733 197.425C441.237 197.26 440.741 197.426 441.071 196.598C441.402 195.771 441.071 195.109 440.906 195.109C440.741 195.109 439.913 194.944 440.41 194.448C440.906 193.951 439.417 184.356 439.417 184.356C439.417 184.356 437.928 179.062 442.229 176.581Z" fill="#575A89"/>
<path d="M417.127 199.6C416.973 199.641 416.809 199.627 416.664 199.561C416.519 199.496 416.401 199.382 416.329 199.24C415.569 197.72 413.509 193.262 415.429 193.124C417.201 192.998 418.779 196.452 419.423 198.084C419.464 198.187 419.482 198.298 419.477 198.41C419.472 198.521 419.443 198.63 419.393 198.729C419.343 198.829 419.272 198.916 419.185 198.987C419.099 199.057 418.998 199.107 418.89 199.136L417.127 199.6Z" fill="#FFB9B9"/>
<path d="M426.679 172.114C430.059 172.114 432.8 169.374 432.8 165.993C432.8 162.613 430.059 159.872 426.679 159.872C423.298 159.872 420.558 162.613 420.558 165.993C420.558 169.374 423.298 172.114 426.679 172.114Z" fill="#FFB9B9"/>
<path d="M424.43 162.468C423.666 162.732 422.878 162.918 422.077 163.024C421.474 163.118 420.768 163.166 420.345 162.727C419.929 162.296 419.996 161.577 420.28 161.05C420.563 160.522 421.018 160.109 421.358 159.617C421.894 158.842 422.211 157.816 423.068 157.426C423.423 157.29 423.8 157.22 424.18 157.218C426.405 157.076 428.72 156.949 430.78 157.8C431.554 158.095 432.239 158.582 432.771 159.217C433.12 159.684 433.389 160.206 433.568 160.761C434.118 162.394 434.241 164.141 433.923 165.834C433.606 167.528 432.859 169.112 431.755 170.435C431.004 169.759 431.331 168.196 430.381 167.851C430.069 167.738 429.717 167.817 429.398 167.728C428.395 167.446 428.445 165.896 427.61 165.273C427.428 165.175 427.266 165.042 427.134 164.882C427.061 164.729 427.029 164.559 427.042 164.389C427.036 163.809 427.309 162.333 426.755 161.935C426.191 161.53 424.972 162.272 424.43 162.468Z" fill="#2F2E41"/>
<path d="M416.713 268.993C416.713 268.993 416.263 259.315 407.038 260.44L416.713 268.993Z" fill="#20325C"/>
<path d="M416.755 257.73H416.371V278.835H416.755V257.73Z" fill="#20325C"/>
<path d="M416.713 258.415C418.452 258.415 419.863 257.005 419.863 255.265C419.863 253.526 418.452 252.115 416.713 252.115C414.973 252.115 413.563 253.526 413.563 255.265C413.563 257.005 414.973 258.415 416.713 258.415Z" fill="#FF5745"/>
<path d="M461.342 246.9C461.342 246.9 461.792 237.222 471.016 238.347L461.342 246.9Z" fill="#606E8D"/>
<path d="M461.151 277.776C461.14 277.674 460.044 267.525 464.481 262.154C466.118 260.172 468.312 259.062 471.002 258.855L471.031 259.238C468.45 259.436 466.345 260.499 464.777 262.398C460.444 267.642 461.521 277.632 461.532 277.733L461.151 277.776Z" fill="#606E8D"/>
<path d="M461.245 237.005H460.861V279.407H461.245V237.005Z" fill="#606E8D"/>
<path d="M461.342 237.223C463.082 237.223 464.492 235.812 464.492 234.073C464.492 232.333 463.082 230.923 461.342 230.923C459.602 230.923 458.192 232.333 458.192 234.073C458.192 235.812 459.602 237.223 461.342 237.223Z" fill="#FF5745"/>
<path d="M471.017 262.196C472.756 262.196 474.166 260.786 474.166 259.046C474.166 257.307 472.756 255.897 471.017 255.897C469.277 255.897 467.867 257.307 467.867 259.046C467.867 260.786 469.277 262.196 471.017 262.196Z" fill="#606E8D"/>
<path d="M377.808 84.0385H281.346V110.862H377.808V84.0385Z" fill="white"/>
<path d="M336.321 92.1276H289.877V93.5371H336.321V92.1276Z" fill="#FF5745"/>
<path d="M370.825 97.0034H289.877V98.4128H370.825V97.0034Z" fill="#E6E6E6"/>
<path d="M370.745 101.879H289.877V103.289H370.745V101.879Z" fill="#E6E6E6"/>
<path d="M418.731 120.577H322.269V147.4H418.731V120.577Z" fill="white"/>
<path d="M377.244 128.666H330.8V130.076H377.244V128.666Z" fill="#FF5745"/>
<path d="M411.747 133.542H330.8V134.951H411.747V133.542Z" fill="#E6E6E6"/>
<path d="M411.668 138.418H330.8V139.827H411.668V138.418Z" fill="#E6E6E6"/>
<path d="M377.077 157.115H280.615V183.939H377.077V157.115Z" fill="white"/>
<path d="M335.59 165.204H289.146V166.614H335.59V165.204Z" fill="#FF5745"/>
<path d="M370.094 170.08H289.146V171.49H370.094V170.08Z" fill="#E6E6E6"/>
<path d="M370.014 174.956H289.146V176.365H370.014V174.956Z" fill="#E6E6E6"/>
</svg>
