<svg width="30" height="30" viewBox="0 0 30 30" fill="none" xmlns="http://www.w3.org/2000/svg">
<circle cx="15" cy="15" r="15" fill="white"/>
<path fill-rule="evenodd" clip-rule="evenodd" d="M15.1561 6C15.489 6.0481 15.8257 6.07808 16.1542 6.14714C18.8533 6.71413 20.8123 8.2486 21.841 10.8004C23.0205 13.7261 22.5033 16.4386 20.4793 18.858C20.3095 19.0609 20.1136 19.2433 19.9197 19.4243C19.5596 19.7604 19.0993 19.7596 18.7915 19.4319C18.4899 19.111 18.5208 18.6339 18.877 18.3068C19.8338 17.428 20.4539 16.3567 20.7569 15.094C21.5382 11.8386 19.3859 8.40728 16.1113 7.69709C12.7915 6.97713 9.56985 8.90643 8.74196 12.1771C8.15767 14.4853 8.76828 16.5039 10.4492 18.1931C10.6156 18.3603 10.7999 18.5102 10.8417 18.7617C10.8981 19.1013 10.7535 19.4163 10.4658 19.5772C10.1733 19.7407 9.83977 19.7067 9.57575 19.4731C9.04831 19.0065 8.59428 18.4752 8.21771 17.8802C7.32931 16.4765 6.88844 14.9372 7.02418 13.2848C7.28542 10.1036 8.9123 7.86166 11.836 6.57526C12.5697 6.25242 13.3475 6.08622 14.1484 6.03344C14.1951 6.03039 14.2407 6.0116 14.2869 6.00014C14.5766 6 14.8663 6 15.1561 6Z" fill="#21325C"/>
<path fill-rule="evenodd" clip-rule="evenodd" d="M14.7133 24.5374C13.3976 24.5374 12.0817 24.5376 10.7659 24.5372C10.3123 24.5371 10.0891 24.314 10.0917 23.8572C10.0942 23.423 10.0617 22.9834 10.1171 22.5556C10.2612 21.4433 11.1114 20.6966 12.2304 20.6883C13.8901 20.676 15.5501 20.675 17.2099 20.6885C18.453 20.6986 19.3493 21.6296 19.3514 22.8771C19.352 23.2151 19.3525 23.5531 19.3513 23.8911C19.3496 24.3086 19.1192 24.5369 18.697 24.5371C17.3691 24.5378 16.0413 24.5374 14.7133 24.5374Z" fill="#21325C"/>
<path fill-rule="evenodd" clip-rule="evenodd" d="M14.72 14.5107C15.9964 14.5103 17.0351 15.5471 17.0335 16.82C17.032 18.0892 15.9784 19.1375 14.7137 19.1284C13.4462 19.1192 12.4123 18.0847 12.4092 16.8228C12.4061 15.5503 13.4447 14.5112 14.72 14.5107Z" fill="#21325C"/>
<path fill-rule="evenodd" clip-rule="evenodd" d="M14.7297 9.86328C16.6758 9.878 18.324 11.3345 18.5501 13.2493C18.5983 13.657 18.3123 14.039 17.9109 14.1031C17.5031 14.168 17.1085 13.9044 17.0446 13.492C16.9258 12.7252 16.5693 12.117 15.8946 11.7209C14.4862 10.8939 12.7017 11.7357 12.431 13.3485C12.3512 13.824 12.0793 14.0979 11.6769 14.1083C11.2054 14.1205 10.8383 13.7182 10.8931 13.2495C11.0935 11.538 12.4899 10.1228 14.1898 9.91097C14.369 9.88865 14.5497 9.87888 14.7297 9.86328Z" fill="#21325C"/>
</svg>
