<svg width="352" height="244" viewBox="0 0 352 244" fill="none" xmlns="http://www.w3.org/2000/svg">
<g clip-path="url(#clip0)">
<path d="M30.1236 239.999C46.7604 239.999 60.2472 239.042 60.2472 237.862C60.2472 236.682 46.7604 235.726 30.1236 235.726C13.4868 235.726 0 236.682 0 237.862C0 239.042 13.4868 239.999 30.1236 239.999Z" fill="#E6E6E6"/>
<path d="M95.1046 244C111.741 244 125.228 243.043 125.228 241.863C125.228 240.683 111.741 239.727 95.1046 239.727C78.4678 239.727 64.981 240.683 64.981 241.863C64.981 243.043 78.4678 244 95.1046 244Z" fill="#E6E6E6"/>
<path d="M324.162 242.417H324.162H172.156C171.391 242.417 170.663 242.134 170.133 241.64C169.603 241.147 169.313 240.487 169.312 239.808V3.10936C169.313 2.42978 169.604 1.77027 170.133 1.27786C170.664 0.784306 171.391 0.500935 172.156 0.5H324.162C324.927 0.500934 325.654 0.784304 326.184 1.27786C326.714 1.77035 327.004 2.42999 327.005 3.10967L327.005 239.808L327.005 239.811C327.006 239.941 326.994 240.071 326.97 240.199L326.97 240.199L326.968 240.21C326.866 240.814 326.535 241.373 326.022 241.781C325.508 242.189 324.849 242.417 324.162 242.417ZM169.65 3.1082V3.10901V239.808C169.65 240.447 169.923 241.053 170.397 241.493C170.869 241.932 171.502 242.173 172.156 242.173H324.162C324.815 242.173 325.449 241.932 325.921 241.493C326.394 241.053 326.668 240.447 326.668 239.808V3.10901V3.10821C326.667 2.46916 326.393 1.86462 325.92 1.42464L325.58 1.78985L325.92 1.42464C325.448 0.985785 324.816 0.744514 324.163 0.743602H324.162L172.156 0.743601L172.155 0.743602C171.502 0.744514 170.87 0.985785 170.398 1.42464C169.925 1.86463 169.651 2.46918 169.65 3.1082Z" fill="#E6E6E6" stroke="#21335C"/>
<path d="M184.191 17.46C183.837 17.4603 183.497 17.5915 183.246 17.8246C182.995 18.0578 182.854 18.3739 182.854 18.7036V70.1058C182.854 70.4355 182.995 70.7516 183.246 70.9848C183.497 71.2179 183.837 71.349 184.191 71.3494H312.126C312.481 71.349 312.821 71.2179 313.071 70.9848C313.322 70.7516 313.463 70.4355 313.464 70.1058V18.7036C313.463 18.3739 313.322 18.0577 313.071 17.8246C312.821 17.5915 312.481 17.4603 312.126 17.46L184.191 17.46Z" fill="#B4B4B4"/>
<path d="M130.754 57.6787C130.412 57.6791 130.083 57.8057 129.841 58.0307C129.599 58.2558 129.463 58.561 129.463 58.8793V108.502C129.463 108.821 129.599 109.126 129.841 109.351C130.083 109.576 130.412 109.703 130.754 109.703H254.261C254.603 109.703 254.931 109.576 255.173 109.351C255.415 109.126 255.551 108.821 255.552 108.502V58.8793C255.551 58.561 255.415 58.2558 255.173 58.0307C254.931 57.8057 254.603 57.6791 254.261 57.6787H130.754Z" fill="#EA5042"/>
<path d="M67.8894 172.94C68.0519 176.657 65.499 179.951 63.1086 182.912C62.0186 184.299 51.8883 193.698 48.8286 197.806C48.0876 198.801 29.8969 218.327 28.9647 220.137C28.7454 220.565 28.5647 221.01 28.4244 221.466C27.8795 223.2 27.8555 225.067 27.9034 226.916V228.21C27.999 231.033 28.1376 233.87 28.8595 236.604C28.9647 237.004 29.0842 237.408 29.1463 237.813C28.9532 237.695 28.771 237.563 28.6013 237.417L18.7148 230.593L18.0981 230.166C17.467 228.468 16.8694 226.752 16.1954 225.076C15.7938 224.08 16.224 222.942 16.9316 222.111C17.6981 221.324 18.5433 220.606 19.4558 219.968C20.1563 219.294 20.781 218.555 21.3203 217.763C28.1424 208.529 47.3561 175.394 48.7569 168.726C50.6035 168.406 52.4955 168.383 54.3503 168.659L64.213 169.877C65.2791 170.011 66.4456 170.193 67.1388 170.953C67.6122 171.523 67.8753 172.22 67.8894 172.94Z" fill="#EFB7B9"/>
<path d="M109.989 180.516C109.778 181.902 109.252 183.23 108.444 184.411C107.431 185.847 95.7898 213.69 92.1708 225.187C91.5063 227.299 91.8553 229.34 91.7835 230.046C91.7262 230.633 91.6736 231.22 91.6258 231.802C91.5588 232.527 91.5062 233.252 91.4489 233.972C91.3007 235.879 91.1716 237.884 92.0369 239.618C92.3764 240.303 92.8879 240.894 93.1126 241.579C92.7753 241.417 92.4633 241.214 92.1851 240.974L82.2986 234.15C81.4924 232.026 80.8706 229.845 80.4389 227.628C80.1903 226.37 80.0708 224.925 80.917 223.96C80.9656 223.901 81.0183 223.844 81.0747 223.791C81.3507 223.55 81.6592 223.344 81.9926 223.178C82.2984 223.022 82.5923 222.846 82.8723 222.653C83.0823 222.5 83.2717 222.324 83.4364 222.128C84.2491 221.195 84.5407 219.883 84.7845 218.652C85.7407 213.61 93.8392 182.677 93.6863 181.912C93.5189 181.161 88.9199 173.954 85.7646 172.354C89.0384 169.804 92.7726 167.814 96.7938 166.476C97.5024 166.169 98.2866 166.045 99.0646 166.116C99.4809 166.201 99.8786 166.352 100.241 166.561C102.406 167.69 104.065 169.468 105.652 171.247C108.019 173.923 110.385 177.071 109.989 180.516Z" fill="#EFB7B9"/>
<path d="M105.675 169.805C105.368 172.494 97.2451 174.873 86.973 176.353C84.3202 176.736 77.8021 161.805 74.9603 162.057C71.543 162.361 71.7816 177.816 68.4019 177.899C56.8966 178.181 49.4616 177.085 47.0581 173.913C45.7577 173.62 44.1896 172.926 44.2518 171.69C44.2948 170.983 44.8972 170.356 44.8924 169.663C44.8924 168.454 48.6644 155.214 50.8874 148.932C51.442 147.372 51.8436 145.771 52.4699 144.229C55.1758 137.275 56.3375 131.941 61.2807 126.152C62.0371 125.34 62.6591 124.427 63.1261 123.445C63.5504 122.265 63.7715 121.03 63.7811 119.786L64.0536 115.433C71.3825 115.113 78.5009 115.242 85.672 116.683C86.0611 116.672 86.4389 116.805 86.7221 117.054C87.0054 117.302 87.171 117.645 87.1825 118.007L87.1828 118.016C87.46 119.608 87.6545 121.207 87.766 122.813C87.7694 123.168 87.8241 123.521 87.9285 123.863C88.1167 124.294 88.3782 124.695 88.703 125.05C92.8527 130.109 95.3961 136.164 97.404 142.228C99.4118 148.292 101.009 154.525 103.533 160.456C104.403 162.501 105.541 164.799 105.77 166.991C106.679 167.618 106.478 169.036 105.675 169.805Z" fill="#2F2E41"/>
<path d="M112.64 96.903C113.902 95.9116 115.164 94.9157 116.321 93.8221C117.953 92.213 119.461 90.4986 120.834 88.6917C122.297 86.8378 123.75 84.9394 124.658 82.7966C125.686 80.3425 126.002 77.5506 127.79 75.5144C127.992 75.2498 128.273 75.0459 128.598 74.9275C129.616 74.6297 130.376 75.8167 130.572 76.7992C131.528 81.6095 129.248 86.411 127.03 90.8478C126.298 92.3105 125.533 93.8132 124.266 94.9201C123.571 95.4727 122.845 95.9906 122.091 96.4717C120.971 97.3184 119.94 98.2622 119.012 99.2903C117.419 100.974 115.903 102.718 114.466 104.523C112.683 106.746 111.009 109.075 108.896 111.036C106.783 112.997 104.139 114.593 101.18 114.979C102.026 114.873 101.749 110.254 101.658 109.671C101.529 108.827 100.908 107.831 100.889 107.004C100.865 105.99 101.309 105.843 102.208 105.132L112.64 96.903Z" fill="#EFB7B9"/>
<path d="M77.1573 67.8096C77.1573 67.8096 74.2889 81.1469 70.9424 83.3698C67.5959 85.5926 89.1092 88.2601 89.1092 88.2601C89.1092 88.2601 89.5873 77.5903 95.3241 72.6999C101.061 67.8096 77.1573 67.8096 77.1573 67.8096Z" fill="#EFB7B9"/>
<path d="M96.4333 120.772C97.1426 120.979 97.8851 121.069 98.6277 121.039C101.138 121.014 103.611 120.478 105.875 119.47C106.087 119.393 106.275 119.268 106.42 119.105C106.505 118.935 106.55 118.75 106.555 118.563C106.559 118.375 106.521 118.189 106.444 118.016C105.096 112.948 107.697 107.199 105.115 102.567C102.309 103.416 99.2301 104.345 96.4238 105.172C95.9934 105.334 95.53 105.407 95.0661 105.385C94.5102 105.278 94.001 105.02 93.6031 104.643C90.5626 102.198 88.6455 98.7923 86.9101 95.4269C85.1747 92.0614 83.4728 88.5893 80.7382 85.8507C78.0037 83.1121 75.4459 81.6628 71.4493 82.0585C70.0306 82.2388 68.7282 82.8854 67.7776 83.8812C65.5211 86.1397 65.0718 89.5763 65.8654 92.5727C66.659 95.5691 68.4804 98.2233 70.3736 100.753C72.8404 104.052 75.4937 107.302 78.9215 109.751C80.7758 111 82.7004 112.156 84.6871 113.214" fill="#E6E6E6"/>
<path d="M88.392 77.8133C96.313 77.8133 102.734 71.842 102.734 64.476C102.734 57.11 96.313 51.1387 88.392 51.1387C80.471 51.1387 74.0498 57.11 74.0498 64.476C74.0498 71.842 80.471 77.8133 88.392 77.8133Z" fill="#EFB7B9"/>
<path d="M94.129 102.86C89.8174 107.588 88.9062 113.629 88.024 119.59C83.6927 118.225 78.8928 120.515 74.4085 119.679C72.1563 118.982 69.7735 118.724 67.4095 118.923C65.7506 118.776 64.106 117.807 62.5236 118.301C59.8929 119.85 62.4547 110.251 62.2984 107.462C60.9196 60.4024 101.965 83.2956 94.129 102.86Z" fill="#E6E6E6"/>
<path d="M118.376 98.6813C119.639 97.6899 120.901 96.694 122.058 95.6004C123.69 93.9913 125.198 92.2769 126.571 90.47C128.034 88.6161 129.487 86.7178 130.395 84.5749C131.423 82.1208 131.739 79.3289 133.527 77.2927C133.729 77.0281 134.01 76.8242 134.335 76.7059C135.353 76.408 136.113 77.595 136.309 78.5775C137.265 83.3879 134.985 88.1893 132.766 92.6262C132.035 94.0888 131.27 95.5915 130.003 96.6985C129.308 97.251 128.582 97.7689 127.828 98.25C126.708 99.0967 125.677 100.04 124.749 101.069C123.156 102.752 121.64 104.496 120.203 106.301C118.419 108.524 116.746 110.854 114.633 112.814C112.52 114.775 109.876 116.371 106.917 116.758C107.763 116.651 107.486 112.032 107.395 111.45C107.266 110.605 106.645 109.609 106.625 108.782C106.602 107.768 107.046 107.622 107.945 106.91L118.376 98.6813Z" fill="#EFB7B9"/>
<path opacity="0.1" d="M92.6946 103.305L92.6612 103.363C91.8341 104.79 90.5959 105.99 89.7449 107.413C88.7888 109.022 88.3442 110.858 87.9617 112.668C87.6972 113.883 87.4533 115.099 87.2303 116.318C85.5135 115.402 83.8536 114.397 82.2583 113.308C78.8305 110.858 76.1772 107.608 73.7104 104.305C71.7981 101.776 69.9814 99.1214 69.2021 96.1294C68.4229 93.1374 68.8771 89.6964 71.1144 87.4379C72.0647 86.441 73.367 85.793 74.786 85.6107C78.7827 85.215 81.3069 86.651 84.0415 89.3852C86.7761 92.1193 88.4685 95.6093 90.2134 98.9613C90.9879 100.415 91.7815 101.904 92.6946 103.305Z" fill="black"/>
<path d="M77.1856 83.8368C75.7669 84.0172 74.4645 84.6637 73.514 85.6596C71.2575 87.918 70.8081 91.3546 71.6017 94.351C72.3953 97.3475 74.2168 100.002 76.1099 102.531C78.5768 105.83 81.2301 109.08 84.6578 111.529C86.5122 112.778 88.4368 113.934 90.4234 114.993C93.7246 116.884 96.897 116.295 99.9227 118.549C100.586 119.108 101.346 119.559 102.17 119.883C102.879 120.09 103.621 120.18 104.364 120.15C106.874 120.124 109.348 118.7 111.612 117.691C111.824 117.615 112.011 117.489 112.157 117.327C112.241 117.156 112.287 116.972 112.291 116.784C112.295 116.597 112.257 116.411 112.181 116.238C110.832 111.169 113.433 108.978 110.851 104.345C108.045 105.194 104.966 106.123 102.16 106.95C101.73 107.113 101.266 107.186 100.802 107.164C100.246 107.056 99.7374 106.798 99.3395 106.421C96.299 103.976 94.3819 100.571 92.6464 97.2052C90.911 93.8397 89.2091 90.3676 86.4745 87.629C83.7399 84.8904 81.1822 83.4411 77.1856 83.8368Z" fill="#E6E6E6"/>
<path d="M97.1569 241.739C96.5177 242.343 95.6865 242.74 94.786 242.871C93.8856 243.002 92.9636 242.861 92.1562 242.468C91.819 242.306 91.507 242.103 91.2288 241.863L81.3422 235.039L77.4221 232.331C77.0097 231.975 76.6797 231.544 76.4521 231.065C76.2245 230.586 76.1042 230.069 76.0984 229.545C76.0926 229.021 76.2014 228.502 76.4183 228.019C76.6352 227.536 76.9555 227.098 77.3599 226.734L79.9606 224.849L81.0363 224.067L82.48 223.017L83.7422 222.102L91.8407 226.325L91.9793 226.574L98.1083 237.564C98.3946 238.272 98.4571 239.041 98.2885 239.78C98.12 240.52 97.7273 241.2 97.1569 241.739Z" fill="#2F2E41"/>
<path d="M33.5734 238.182C32.9342 238.786 32.103 239.183 31.2026 239.314C30.3021 239.446 29.3801 239.304 28.5727 238.911C28.4437 238.849 28.3146 238.778 28.1903 238.702C27.9972 238.584 27.8149 238.452 27.6453 238.306L17.7587 231.482L17.142 231.055L13.8385 228.775C13.4262 228.418 13.0962 227.987 12.8686 227.508C12.641 227.029 12.5207 226.512 12.5149 225.988C12.5091 225.465 12.6179 224.946 12.8348 224.462C13.0517 223.979 13.372 223.542 13.7764 223.177L16.3771 221.292L17.4528 220.51L18.8966 219.461L20.1587 218.545L20.3642 218.652L27.4684 222.355L28.2572 222.768L28.3958 223.017L34.5247 234.007C34.811 234.715 34.8736 235.484 34.705 236.224C34.5365 236.964 34.1438 237.643 33.5734 238.182Z" fill="#2F2E41"/>
<path d="M101.896 53.1067C96.3423 47.2553 90.0803 44.4568 82.5726 47.0263C70.5267 43.2664 54.6923 69.1059 64.4425 78.4769L80.9548 79.7572L86.011 71.2908L84.2219 80.0605L97.4298 81.2864C90.6919 71.5441 92.8532 62.1794 101.896 53.1067Z" fill="#2F2E41"/>
<path d="M164.103 95.3448C171.024 95.3448 176.635 90.1272 176.635 83.691C176.635 77.2547 171.024 72.0371 164.103 72.0371C157.182 72.0371 151.571 77.2547 151.571 83.691C151.571 90.1272 157.182 95.3448 164.103 95.3448Z" fill="white"/>
<path d="M192.387 82.1408C192.002 82.1467 191.636 82.2928 191.366 82.5477C191.096 82.8026 190.945 83.1458 190.945 83.5034C190.945 83.861 191.096 84.2042 191.366 84.4591C191.636 84.714 192.002 84.8601 192.387 84.866H231.954C232.343 84.8719 232.718 84.734 232.998 84.4827C233.277 84.2314 233.437 83.8871 233.444 83.5258C233.45 83.1644 233.302 82.8155 233.032 82.5557C232.761 82.296 232.391 82.1467 232.003 82.1408C231.987 82.1406 231.971 82.1406 231.954 82.1408H192.387Z" fill="white"/>
<path d="M192.387 74.2463C192.002 74.2522 191.636 74.3983 191.366 74.6532C191.096 74.9081 190.945 75.2513 190.945 75.6088C190.945 75.9664 191.096 76.3096 191.366 76.5645C191.636 76.8194 192.002 76.9655 192.387 76.9714H212.146C212.534 76.9771 212.909 76.8391 213.188 76.5877C213.467 76.3364 213.628 75.9924 213.634 75.6312C213.64 75.27 213.492 74.9213 213.222 74.6616C212.952 74.4019 212.582 74.2525 212.194 74.2463C212.178 74.246 212.162 74.246 212.146 74.2463H192.387Z" fill="white"/>
<path d="M192.387 90.4103C192.002 90.4162 191.636 90.5624 191.366 90.8173C191.096 91.0721 190.945 91.4154 190.945 91.7729C190.945 92.1305 191.096 92.4737 191.366 92.7286C191.636 92.9835 192.002 93.1296 192.387 93.1355H231.954C232.147 93.1385 232.338 93.1063 232.517 93.0406C232.696 92.9749 232.86 92.8771 232.998 92.7526C233.137 92.6281 233.247 92.4795 233.324 92.3153C233.401 92.151 233.442 91.9743 233.445 91.7953C233.448 91.6163 233.413 91.4384 233.342 91.2719C233.272 91.1054 233.166 90.9535 233.032 90.8249C232.898 90.6963 232.738 90.5935 232.562 90.5223C232.385 90.4512 232.195 90.4131 232.002 90.4103C231.986 90.4101 231.97 90.4101 231.954 90.4103H192.387Z" fill="white"/>
<path d="M204.382 128.97C206.105 128.97 207.502 127.671 207.502 126.069C207.502 124.466 206.105 123.167 204.382 123.167C202.659 123.167 201.262 124.466 201.262 126.069C201.262 127.671 202.659 128.97 204.382 128.97Z" fill="#EA5042"/>
<path d="M217.241 124.566C216.818 124.572 216.414 124.734 216.116 125.015C215.819 125.296 215.653 125.674 215.653 126.068C215.653 126.462 215.819 126.841 216.116 127.122C216.414 127.403 216.818 127.564 217.241 127.571H293.413C293.84 127.575 294.252 127.423 294.559 127.146C294.865 126.869 295.041 126.49 295.048 126.093C295.055 125.695 294.893 125.312 294.596 125.025C294.3 124.739 293.893 124.574 293.466 124.566C293.448 124.565 293.431 124.565 293.413 124.566H217.241Z" fill="#21335C"/>
<path d="M204.382 143.063C206.105 143.063 207.502 141.764 207.502 140.162C207.502 138.559 206.105 137.26 204.382 137.26C202.659 137.26 201.262 138.559 201.262 140.162C201.262 141.764 202.659 143.063 204.382 143.063Z" fill="#EA5042"/>
<path d="M217.241 138.66C216.818 138.667 216.414 138.828 216.117 139.109C215.819 139.39 215.653 139.769 215.653 140.163C215.653 140.557 215.819 140.935 216.117 141.216C216.414 141.497 216.818 141.659 217.241 141.665H293.413C293.841 141.67 294.253 141.518 294.559 141.241C294.866 140.964 295.042 140.585 295.049 140.187C295.056 139.79 294.893 139.406 294.597 139.12C294.3 138.834 293.894 138.668 293.466 138.66C293.449 138.66 293.431 138.66 293.413 138.66H217.241Z" fill="#21335C"/>
<path d="M204.382 157.158C206.105 157.158 207.502 155.859 207.502 154.256C207.502 152.654 206.105 151.354 204.382 151.354C202.659 151.354 201.262 152.654 201.262 154.256C201.262 155.859 202.659 157.158 204.382 157.158Z" fill="#EA5042"/>
<path d="M217.241 152.754C216.818 152.761 216.414 152.922 216.117 153.203C215.819 153.484 215.653 153.862 215.653 154.257C215.653 154.651 215.819 155.029 216.117 155.31C216.414 155.591 216.818 155.752 217.241 155.759H293.413C293.841 155.764 294.253 155.611 294.559 155.334C294.866 155.057 295.042 154.679 295.049 154.281C295.056 153.884 294.893 153.5 294.597 153.214C294.3 152.927 293.894 152.762 293.466 152.754C293.449 152.754 293.431 152.754 293.413 152.754H217.241Z" fill="#21335C"/>
<path d="M204.382 171.253C206.105 171.253 207.502 169.954 207.502 168.351C207.502 166.748 206.105 165.449 204.382 165.449C202.659 165.449 201.262 166.748 201.262 168.351C201.262 169.954 202.659 171.253 204.382 171.253Z" fill="#EA5042"/>
<path d="M217.241 166.848C216.818 166.855 216.414 167.016 216.116 167.297C215.819 167.578 215.653 167.956 215.653 168.35C215.653 168.744 215.819 169.123 216.116 169.404C216.414 169.685 216.818 169.846 217.241 169.853H293.413C293.626 169.857 293.837 169.822 294.035 169.75C294.234 169.678 294.414 169.57 294.568 169.433C294.721 169.295 294.843 169.131 294.928 168.95C295.013 168.768 295.059 168.573 295.062 168.375C295.066 168.177 295.027 167.981 294.949 167.797C294.87 167.613 294.754 167.445 294.605 167.303C294.457 167.161 294.28 167.048 294.085 166.97C293.889 166.892 293.679 166.85 293.466 166.848C293.448 166.848 293.431 166.848 293.413 166.848H217.241Z" fill="#21335C"/>
<path d="M204.382 185.346C206.105 185.346 207.502 184.047 207.502 182.445C207.502 180.842 206.105 179.543 204.382 179.543C202.659 179.543 201.262 180.842 201.262 182.445C201.262 184.047 202.659 185.346 204.382 185.346Z" fill="#EA5042"/>
<path d="M217.241 180.943C216.818 180.949 216.414 181.111 216.116 181.392C215.819 181.673 215.653 182.051 215.653 182.445C215.653 182.839 215.819 183.218 216.116 183.499C216.414 183.78 216.818 183.941 217.241 183.948H293.413C293.84 183.952 294.252 183.8 294.559 183.523C294.865 183.246 295.041 182.867 295.048 182.47C295.055 182.072 294.893 181.688 294.596 181.402C294.3 181.116 293.893 180.951 293.466 180.943C293.448 180.942 293.431 180.942 293.413 180.943H217.241Z" fill="#21335C"/>
<path d="M204.382 199.44C206.105 199.44 207.502 198.141 207.502 196.538C207.502 194.936 206.105 193.637 204.382 193.637C202.659 193.637 201.262 194.936 201.262 196.538C201.262 198.141 202.659 199.44 204.382 199.44Z" fill="#EA5042"/>
<path d="M217.241 195.036C216.818 195.043 216.414 195.204 216.116 195.485C215.819 195.766 215.653 196.145 215.653 196.539C215.653 196.933 215.819 197.311 216.116 197.592C216.414 197.873 216.818 198.035 217.241 198.041H293.413C293.84 198.046 294.252 197.893 294.559 197.616C294.865 197.339 295.041 196.961 295.048 196.563C295.055 196.166 294.893 195.782 294.596 195.496C294.3 195.21 293.893 195.045 293.466 195.036C293.448 195.036 293.431 195.036 293.413 195.036H217.241Z" fill="#21335C"/>
<path d="M204.382 213.535C206.105 213.535 207.502 212.236 207.502 210.633C207.502 209.031 206.105 207.731 204.382 207.731C202.659 207.731 201.262 209.031 201.262 210.633C201.262 212.236 202.659 213.535 204.382 213.535Z" fill="#EA5042"/>
<path d="M217.241 209.13C216.818 209.137 216.414 209.298 216.117 209.579C215.819 209.86 215.653 210.238 215.653 210.633C215.653 211.027 215.819 211.405 216.117 211.686C216.414 211.967 216.818 212.128 217.241 212.135H293.413C293.841 212.14 294.253 211.987 294.559 211.71C294.866 211.433 295.042 211.055 295.049 210.657C295.056 210.26 294.893 209.876 294.597 209.59C294.3 209.303 293.894 209.138 293.466 209.13C293.449 209.13 293.431 209.13 293.413 209.13H217.241Z" fill="#21335C"/>
<path d="M352 189.935C351.933 191.465 350.27 223.04 327.46 240.293C326.506 241.014 325.515 241.709 324.487 242.378L323.711 241.673H324.162C324.694 241.673 325.204 241.477 325.58 241.127C325.956 240.777 326.168 240.303 326.168 239.808V177.57C326.645 175.182 327.095 172.836 327.505 170.552C329.729 158.136 330.759 147.649 329.092 143.292C329.814 144.975 344.31 179.398 336.438 214.472C344.234 204.544 351.634 194.122 352 189.935Z" fill="#21335C"/>
</g>
<defs>
<clipPath id="clip0">
<rect width="352" height="244" fill="white"/>
</clipPath>
</defs>
</svg>
