<svg width="6" height="18" viewBox="0 0 6 18" fill="none" xmlns="http://www.w3.org/2000/svg">
<path d="M2.9504 4.66732C4.13752 4.66732 5.1088 3.69232 5.1088 2.50065C5.1088 1.30898 4.13752 0.333984 2.9504 0.333984C1.76327 0.333984 0.791992 1.30898 0.791992 2.50065C0.791992 3.69232 1.76327 4.66732 2.9504 4.66732ZM2.9504 6.83398C1.76327 6.83398 0.791992 7.80898 0.791992 9.00065C0.791992 10.1923 1.76327 11.1673 2.9504 11.1673C4.13752 11.1673 5.1088 10.1923 5.1088 9.00065C5.1088 7.80898 4.13752 6.83398 2.9504 6.83398ZM2.9504 13.334C1.76327 13.334 0.791992 14.309 0.791992 15.5007C0.791992 16.6923 1.76327 17.6673 2.9504 17.6673C4.13752 17.6673 5.1088 16.6923 5.1088 15.5007C5.1088 14.309 4.13752 13.334 2.9504 13.334Z" fill="#20325C"/>
</svg>
