<svg width="30" height="30" viewBox="0 0 30 30" fill="none" xmlns="http://www.w3.org/2000/svg">
<circle cx="15" cy="15" r="15" fill="white"/>
<path d="M14.5 17.8333H16.1667V19.5H14.5V17.8333ZM14.5 11.1667H16.1667V16.1667H14.5V11.1667ZM15.325 7C10.725 7 7 10.7333 7 15.3333C7 19.9333 10.725 23.6667 15.325 23.6667C19.9333 23.6667 23.6667 19.9333 23.6667 15.3333C23.6667 10.7333 19.9333 7 15.325 7ZM15.3333 22C11.65 22 8.66667 19.0167 8.66667 15.3333C8.66667 11.65 11.65 8.66667 15.3333 8.66667C19.0167 8.66667 22 11.65 22 15.3333C22 19.0167 19.0167 22 15.3333 22Z" fill="#21335C"/>
</svg>
