<svg width="30" height="30" viewBox="0 0 30 30" fill="none" xmlns="http://www.w3.org/2000/svg">
<circle cx="15" cy="15" r="15" fill="white"/>
<path fill-rule="evenodd" clip-rule="evenodd" d="M8.33443 6C8.98677 6 9.6391 6 10.2915 6C10.5637 6.02404 10.8359 6.04763 11.108 6.07225C11.9707 6.15059 12.819 6.29839 13.6269 6.62379C14.8994 7.1359 15.7739 8.00971 16.1082 9.37118C16.2555 9.97104 16.2635 10.5818 16.2616 11.1945C16.2602 11.7925 16.7116 12.252 17.2903 12.2538C17.8786 12.2557 18.3289 11.7968 18.3303 11.1887C18.3325 10.4334 18.331 9.67801 18.331 8.92266C18.331 8.86756 18.331 8.81218 18.331 8.71133C18.7677 9.01564 19.1908 9.27751 19.5767 9.58502C21.2841 10.9469 22.2383 12.7205 22.4128 14.9007C22.5233 16.2759 22.3859 17.6236 21.8259 18.8982C20.6915 21.4779 18.7326 23.0133 15.9462 23.4782C15.6879 23.5215 15.4269 23.5459 15.1669 23.5791C14.8807 23.5791 14.5947 23.5791 14.3085 23.5791C14.2531 23.5677 14.198 23.5494 14.1422 23.5459C13.2838 23.4911 12.4516 23.3055 11.6744 22.9439C8.8919 21.6493 7.32075 19.4747 7.03142 16.409C6.90088 15.0292 7.18201 13.7149 7.78358 12.467C8.16265 11.6809 8.69168 11.0058 9.27923 10.3654C10.2528 9.30543 10.222 7.91775 9.21986 6.88623C8.92877 6.58698 8.62981 6.29548 8.33443 6ZM12.948 13.081C12.5682 13.4587 12.178 13.8289 11.8075 14.218C10.8844 15.1869 10.859 16.7323 11.7792 17.7054C12.5489 18.5198 13.3439 19.3123 14.1576 20.0828C15.0092 20.8896 16.3628 20.9958 17.3052 20.3002C17.8478 19.8996 18.3067 19.3853 18.7863 18.9383C18.0342 18.1858 17.3084 17.4598 16.5631 16.7141C16.4676 16.8174 16.3639 16.9397 16.2491 17.0507C16.0195 17.2738 15.7308 17.2741 15.5012 17.0513C15.2673 16.8242 15.037 16.5932 14.8095 16.3597C14.5806 16.1251 14.581 15.8317 14.8134 15.5985C14.9254 15.4863 15.0528 15.3897 15.1625 15.295C14.4015 14.5342 13.6787 13.8118 12.948 13.081Z" fill="#21335C"/>
<path fill-rule="evenodd" clip-rule="evenodd" d="M17.3518 18.9175C17.0722 19.1363 16.8304 19.382 16.541 19.5408C15.961 19.8595 15.26 19.7186 14.7618 19.2247C14.0504 18.5194 13.3444 17.8095 12.6363 17.1014C12.6041 17.0688 12.5734 17.0352 12.5429 17.0008C12.0093 16.3932 12.0214 15.5177 12.5733 14.9257C12.6938 14.7963 12.819 14.6707 12.9563 14.5283C13.2134 14.7851 13.461 15.0284 13.7013 15.2783C13.7241 15.3024 13.7131 15.3738 13.6988 15.4168C13.4792 16.0656 13.6108 16.6324 14.0915 17.1181C14.3089 17.3377 14.526 17.5577 14.7474 17.7733C15.231 18.2454 15.7928 18.3755 16.4359 18.1582C16.4842 18.1417 16.5668 18.1448 16.599 18.1753C16.8436 18.4064 17.0796 18.6467 17.3518 18.9175Z" fill="#21335C"/>
</svg>
