<svg width="30" height="30" viewBox="0 0 30 30" fill="none" xmlns="http://www.w3.org/2000/svg">
<circle cx="15" cy="15" r="15" fill="white"/>
<path d="M14.9998 6.66699C10.3998 6.66699 6.6665 10.4003 6.6665 15.0003C6.6665 19.6003 10.3998 23.3337 14.9998 23.3337C19.5998 23.3337 23.3332 19.6003 23.3332 15.0003C23.3332 10.4003 19.5998 6.66699 14.9998 6.66699ZM15.8332 20.8337H14.1665V19.167H15.8332V20.8337ZM17.5582 14.3753L16.8082 15.142C16.2082 15.7503 15.8332 16.2503 15.8332 17.5003H14.1665V17.0837C14.1665 16.167 14.5415 15.3337 15.1415 14.7253L16.1748 13.6753C16.4832 13.3753 16.6665 12.9587 16.6665 12.5003C16.6665 11.5837 15.9165 10.8337 14.9998 10.8337C14.0832 10.8337 13.3332 11.5837 13.3332 12.5003H11.6665C11.6665 10.6587 13.1582 9.16699 14.9998 9.16699C16.8415 9.16699 18.3332 10.6587 18.3332 12.5003C18.3332 13.2337 18.0332 13.9003 17.5582 14.3753Z" fill="#21335C"/>
</svg>
