<svg width="193" height="34" viewBox="0 0 193 34" fill="none" xmlns="http://www.w3.org/2000/svg">
<g clip-path="url(#clip0)">
<path fill-rule="evenodd" clip-rule="evenodd" d="M13.1817 21.5801L13.9333 24.6046L13.3504 27.2787L14.3091 32.7652L16.61 34H20.9946L23.2955 32.7652L24.2542 27.2787L23.6688 24.6046L24.4178 21.5801C19.9873 21.5469 17.6148 21.5469 13.1817 21.5801ZM20.6878 30.1984C20.7699 29.3495 21.1345 28.5528 21.7232 27.9358C21.767 27.8909 21.8233 27.8601 21.8848 27.8475C21.9462 27.8348 22.0101 27.8408 22.0681 27.8648C22.1261 27.8887 22.1756 27.9294 22.2103 27.9817C22.245 28.034 22.2632 28.0955 22.2626 28.1582C22.2536 28.5933 22.1554 29.022 21.9743 29.4177C21.7931 29.8135 21.5328 30.1679 21.2093 30.4591C21.1624 30.4968 21.1057 30.5203 21.0458 30.5267C20.986 30.5331 20.9255 30.5222 20.8717 30.4953C20.8178 30.4684 20.7728 30.4266 20.7421 30.3748C20.7113 30.3231 20.696 30.2636 20.698 30.2035L20.6878 30.1984ZM12.0798 17.1291C15.8968 15.3574 21.7053 15.3574 25.5197 17.1291L23.7046 12.5017L25.4354 12.0389L31.8268 10.326C32.8187 10.0633 33.7485 9.60617 34.5624 8.98128C35.3786 8.35711 36.0633 7.5777 36.577 6.68789C37.0908 5.79808 37.4236 4.81544 37.5561 3.79653C37.6834 2.78206 37.6087 1.75243 37.3363 0.766975L37.1471 0L35.6361 0.40394L35.8381 1.17092C36.0524 1.96404 36.1081 2.79168 36.0019 3.60637C35.8958 4.42106 35.6298 5.20678 35.2194 5.91849C34.8079 6.62919 34.2606 7.25203 33.6088 7.75156C33.4039 7.90897 33.1886 8.05246 32.9645 8.18107C33.7107 7.13968 34.1893 5.93066 34.3578 4.66065L34.4576 3.89368L32.9236 3.69426L32.8239 4.46124C32.6981 5.40191 32.3606 6.3018 31.8368 7.09315C31.3129 7.8845 30.6163 8.54668 29.7995 9.02985C29.9401 8.82788 30.0756 8.6208 30.1983 8.4086L30.5894 7.73366L29.2396 6.95135L28.8484 7.62629C28.4376 8.33822 27.8902 8.96203 27.2378 9.46191C26.9325 9.69571 26.6064 9.90109 26.2637 10.0755C23.8477 10.7402 22.8302 11.07 20.8949 11.6248L18.801 10.9601L16.72 11.6146C14.7821 11.0598 13.7876 10.7376 11.3716 10.0806C11.0277 9.90531 10.7015 9.69726 10.3975 9.45936C9.7439 8.96072 9.19633 8.33666 8.7869 7.62373L8.39574 6.94624L7.04587 7.72855L7.43702 8.40349C7.55915 8.61732 7.69227 8.82468 7.83585 9.02474C7.01827 8.54244 6.32111 7.88049 5.79712 7.08898C5.27314 6.29747 4.93607 5.39714 4.81141 4.45612L4.71171 3.68915L3.16497 3.89112L3.26724 4.65809C3.43572 5.92892 3.91423 7.13879 4.66057 8.18107C4.43695 8.05074 4.22177 7.90643 4.01632 7.749C3.36505 7.24885 2.81789 6.62613 2.40567 5.91593C1.99742 5.20706 1.73086 4.42559 1.6208 3.61501C1.51576 2.79912 1.57135 1.97057 1.78442 1.17603L1.98639 0.409053L0.478005 0L0.265809 0.766975C0.000141534 1.75892 -0.0672384 2.79353 0.0675277 3.81156C0.202294 4.82958 0.536558 5.81103 1.05118 6.69968C1.5658 7.58833 2.25067 8.36674 3.06656 8.99032C3.88245 9.6139 4.81334 10.0704 5.80592 10.3337L12.1437 12.0313L13.8975 12.5017L12.0798 17.1291ZM15.8789 27.9332C16.464 28.5513 16.8242 29.3482 16.9015 30.1958C16.9086 30.2585 16.8962 30.3218 16.866 30.3771C16.8358 30.4325 16.7893 30.4772 16.7328 30.5051C16.6767 30.5341 16.613 30.5453 16.5504 30.5371C16.4878 30.5288 16.4292 30.5016 16.3825 30.4591C16.0591 30.1679 15.7987 29.8135 15.6176 29.4177C15.4364 29.022 15.3383 28.5933 15.3292 28.1582C15.3287 28.0955 15.3469 28.034 15.3816 27.9817C15.4162 27.9294 15.4658 27.8887 15.5238 27.8648C15.5818 27.8408 15.6456 27.8348 15.7071 27.8475C15.7685 27.8601 15.8248 27.8909 15.8686 27.9358" fill="#21335C"/>
<path d="M55.3141 20.1382L53.4427 13.9615L51.6531 20.1382H55.3141ZM50.4004 23.4055L48.8409 27.6111H44.827L51.3974 9.87097H55.488L62.0558 27.6111H58.0931L56.5234 23.4157L50.4004 23.4055Z" fill="#EA5042"/>
<path d="M66.6373 27.6112H63.0581V15.5953H66.6373V17.3337C66.9905 16.7262 67.4971 16.2222 68.1065 15.8722C68.7158 15.5222 69.4065 15.3385 70.1092 15.3396C72.8115 15.3396 74.5116 17.0116 74.5116 20.4349V27.6112H70.9324V21.1916C70.9324 19.5989 70.0555 18.8012 68.8462 18.8012C67.5858 18.8012 66.6348 19.4174 66.6348 21.2453L66.6373 27.6112Z" fill="#EA5042"/>
<path d="M85.4001 21.5521C85.3925 21.0173 85.2272 20.4967 84.9249 20.0556C84.6225 19.6144 84.1966 19.2724 83.7006 19.0724C83.2046 18.8724 82.6606 18.8233 82.1368 18.9313C81.6131 19.0394 81.1328 19.2997 80.7565 19.6796C80.3801 20.0595 80.1242 20.5421 80.0211 21.0669C79.918 21.5917 79.9721 22.1352 80.1768 22.6293C80.3814 23.1234 80.7274 23.5461 81.1713 23.8443C81.6153 24.1425 82.1374 24.303 82.6722 24.3055C83.0349 24.3141 83.3956 24.2485 83.7321 24.1128C84.0686 23.9771 84.3739 23.7742 84.6293 23.5165C84.8846 23.2587 85.0847 22.9515 85.2173 22.6138C85.3498 22.276 85.412 21.9147 85.4001 21.5521ZM76.452 21.5521C76.452 17.7709 79.2643 15.3396 82.6671 15.3396C86.0699 15.3396 88.9205 17.7837 88.9205 21.5649C88.9205 25.3461 86.0648 27.8183 82.6671 27.8183C79.2694 27.8183 76.452 25.3358 76.452 21.5521Z" fill="#EA5042"/>
<path d="M94.5552 27.6112H90.976V15.5953H94.5552V17.3337C94.9087 16.726 95.4158 16.2219 96.0256 15.8719C96.6354 15.5219 97.3265 15.3383 98.0296 15.3396C100.729 15.3396 102.429 17.0116 102.429 20.4349V27.6112H98.8502V21.1916C98.8502 19.5989 97.9759 18.8012 96.7666 18.8012C95.5037 18.8012 94.5526 19.4174 94.5526 21.2453L94.5552 27.6112Z" fill="#EA5042"/>
<path d="M108.887 33.4938H105.106L107.987 26.3635L103.355 15.5824H107.164L109.813 22.4034L112.49 15.5824H116.299L108.887 33.4938Z" fill="#EA5042"/>
<path d="M134.489 9.87097H137.657L139.817 27.6009H136.033L134.798 16.9732L130.657 25.5658H127.75L123.58 16.9732L122.32 27.6009H118.536L120.724 9.87097H123.838L129.189 21.2963L134.489 9.87097Z" fill="#21335C"/>
<path d="M150.11 21.5519C150.102 21.0172 149.937 20.4966 149.635 20.0554C149.332 19.6143 148.906 19.2723 148.41 19.0722C147.914 18.8722 147.37 18.8232 146.847 18.9312C146.323 19.0392 145.843 19.2995 145.466 19.6794C145.09 20.0594 144.834 20.542 144.731 21.0667C144.628 21.5915 144.682 22.135 144.886 22.6292C145.091 23.1233 145.437 23.5459 145.881 23.8441C146.325 24.1424 146.847 24.3028 147.382 24.3054C147.745 24.3139 148.105 24.2484 148.442 24.1127C148.778 23.977 149.084 23.7741 149.339 23.5163C149.594 23.2585 149.794 22.9514 149.927 22.6136C150.059 22.2758 150.122 21.9146 150.11 21.5519ZM141.162 21.5519C141.162 17.7708 143.994 15.3267 147.39 15.3267C150.785 15.3267 153.635 17.7708 153.635 21.5519C153.635 25.3331 150.78 27.8053 147.382 27.8053C143.984 27.8053 141.154 25.3357 141.154 21.5519" fill="#21335C"/>
<path d="M163.928 21.5519C163.921 21.0172 163.755 20.4966 163.453 20.0554C163.151 19.6143 162.725 19.2723 162.229 19.0722C161.733 18.8722 161.189 18.8232 160.665 18.9312C160.141 19.0392 159.661 19.2995 159.285 19.6794C158.908 20.0594 158.652 20.542 158.549 21.0667C158.446 21.5915 158.5 22.135 158.705 22.6292C158.909 23.1233 159.255 23.5459 159.699 23.8441C160.143 24.1424 160.665 24.3028 161.2 24.3054C161.563 24.3139 161.924 24.2484 162.26 24.1127C162.597 23.977 162.902 23.7741 163.157 23.5163C163.413 23.2585 163.613 22.9514 163.745 22.6136C163.878 22.2758 163.94 21.9146 163.928 21.5519ZM154.98 21.5519C154.98 17.7708 157.813 15.3267 161.208 15.3267C164.603 15.3267 167.466 17.7708 167.466 21.5519C167.466 25.3331 164.611 27.8053 161.213 27.8053C157.815 27.8053 154.972 25.3357 154.972 21.5519" fill="#21335C"/>
<path d="M172.626 22.6589C169.023 21.6823 168.998 19.8467 169.023 18.7474C169.049 16.9731 171.184 15.3267 173.707 15.3267C176.1 15.3267 178.621 16.38 178.646 19.3149H175.277C175.249 18.4125 174.479 18.2591 173.912 18.2591C173.145 18.2591 172.633 18.6195 172.651 19.159C172.677 19.5195 172.986 19.8799 173.707 20.0615L175.752 20.6009C178.659 21.3985 179.02 23.3288 179.02 24.1009C179.02 26.6574 176.343 27.8565 173.822 27.8565C171.378 27.8565 168.829 26.3916 168.803 23.7148H172.15C172.176 24.4102 172.948 25.103 173.924 25.103C174.722 25.08 175.392 24.717 175.392 24.1009C175.392 23.5895 175.082 23.3032 174.208 23.0782L172.626 22.6589Z" fill="#21335C"/>
<path d="M189.118 20.5243C188.939 19.0569 187.602 18.4791 186.597 18.4791C185.593 18.4791 184.23 19.0185 183.921 20.5243H189.118ZM192.053 25.4125C190.844 27.2021 188.604 27.8566 186.572 27.8566C183.123 27.8566 180.293 25.3358 180.293 21.5521C180.293 17.7684 183.123 15.3396 186.572 15.3396C190.021 15.3396 192.707 17.8962 192.707 21.6697C192.707 21.9765 192.684 22.4674 192.656 22.7741H183.869C184.051 24.1649 185.57 24.7836 186.827 24.7836C187.807 24.7836 188.873 24.4231 189.453 23.6511L192.053 25.4125Z" fill="#21335C"/>
</g>
<defs>
<clipPath id="clip0">
<rect width="192.707" height="34" fill="white"/>
</clipPath>
</defs>
</svg>
