<svg width="30" height="30" viewBox="0 0 30 30" fill="none" xmlns="http://www.w3.org/2000/svg">
<circle cx="15" cy="15" r="15" fill="white"/>
<path d="M18.325 15C19.498 15 20.4415 14.04 20.4415 12.8571C20.4415 11.6743 19.498 10.7143 18.325 10.7143C17.152 10.7143 16.2 11.6743 16.2 12.8571C16.2 14.04 17.152 15 18.325 15ZM11.95 14.1429C13.361 14.1429 14.4915 12.9943 14.4915 11.5714C14.4915 10.1486 13.361 9 11.95 9C10.539 9 9.4 10.1486 9.4 11.5714C9.4 12.9943 10.539 14.1429 11.95 14.1429ZM18.325 16.7143C16.7695 16.7143 13.65 17.5029 13.65 19.0714V21H23V19.0714C23 17.5029 19.8805 16.7143 18.325 16.7143ZM11.95 15.8571C9.9695 15.8571 6 16.86 6 18.8571V21H11.95V19.0714C11.95 18.3429 12.2305 17.0657 13.9645 16.0971C13.225 15.9429 12.511 15.8571 11.95 15.8571Z" fill="#EA5042"/>
</svg>
