<svg width="30" height="30" viewBox="0 0 30 30" fill="none" xmlns="http://www.w3.org/2000/svg">
<circle cx="15" cy="15" r="15" fill="white"/>
<g clip-path="url(#clip0)">
<path d="M23.9999 18.5048C23.9999 16.3952 22.7897 14.5125 20.9771 13.5967C20.9208 17.6415 17.6415 20.9208 13.5967 20.9771C14.5125 22.7897 16.3952 23.9999 18.5048 23.9999C19.4939 23.9999 20.4557 23.7365 21.3008 23.236L23.9759 23.9759L23.236 21.3008C23.7365 20.4557 23.9999 19.4939 23.9999 18.5048Z" fill="#21335C"/>
<path d="M19.9824 13.4912C19.9824 9.91189 17.0705 7 13.4912 7C9.91189 7 7 9.91189 7 13.4912C7 14.6577 7.3105 15.7935 7.90012 16.7906L7.02386 19.9584L10.1918 19.0823C11.1889 19.6719 12.3247 19.9824 13.4912 19.9824C17.0705 19.9824 19.9824 17.0705 19.9824 13.4912ZM12.4951 11.9805H11.499C11.499 10.8819 12.3927 9.98828 13.4912 9.98828C14.5898 9.98828 15.4834 10.8819 15.4834 11.9805C15.4834 12.538 15.2473 13.074 14.8355 13.4506L13.9893 14.2252V15.002H12.9932V13.7865L14.1631 12.7157C14.3721 12.5244 14.4873 12.2633 14.4873 11.9805C14.4873 11.4312 14.0405 10.9844 13.4912 10.9844C12.9419 10.9844 12.4951 11.4312 12.4951 11.9805ZM12.9932 15.998H13.9893V16.9941H12.9932V15.998Z" fill="#21335C"/>
</g>
<defs>
<clipPath id="clip0">
<rect width="17" height="17" fill="white" transform="translate(7 7)"/>
</clipPath>
</defs>
</svg>
