<svg width="30" height="30" viewBox="0 0 30 30" fill="none" xmlns="http://www.w3.org/2000/svg">
<circle cx="15" cy="15" r="15" fill="white"/>
<g clip-path="url(#clip0)">
<path d="M22.0714 6.28516H7.92857C6.86384 6.28516 6 7.149 6 8.21373V22.3566C6 23.4213 6.86384 24.2852 7.92857 24.2852H22.0714C23.1362 24.2852 24 23.4213 24 22.3566V8.21373C24 7.149 23.1362 6.28516 22.0714 6.28516ZM12.4286 19.7852C12.4286 20.1403 12.1409 20.428 11.7857 20.428H10.5C10.1448 20.428 9.85714 20.1403 9.85714 19.7852V14.6423C9.85714 14.2871 10.1448 13.9994 10.5 13.9994H11.7857C12.1409 13.9994 12.4286 14.2871 12.4286 14.6423V19.7852ZM16.2857 19.7852C16.2857 20.1403 15.998 20.428 15.6429 20.428H14.3571C14.002 20.428 13.7143 20.1403 13.7143 19.7852V10.7852C13.7143 10.43 14.002 10.1423 14.3571 10.1423H15.6429C15.998 10.1423 16.2857 10.43 16.2857 10.7852V19.7852ZM20.1429 19.7852C20.1429 20.1403 19.8552 20.428 19.5 20.428H18.2143C17.8591 20.428 17.5714 20.1403 17.5714 19.7852V17.2137C17.5714 16.8585 17.8591 16.5709 18.2143 16.5709H19.5C19.8552 16.5709 20.1429 16.8585 20.1429 17.2137V19.7852Z" fill="#21335C"/>
</g>
<defs>
<clipPath id="clip0">
<rect width="18" height="20.5714" fill="white" transform="translate(7 7)"/>
</clipPath>
</defs>
</svg>
